<?xml version="1.0" encoding="UTF-8" standalone="no"?>
<svg width="33px" height="33px" viewBox="0 0 33 33" version="1.1" xmlns="http://www.w3.org/2000/svg" xmlns:xlink="http://www.w3.org/1999/xlink" xmlns:sketch="http://www.bohemiancoding.com/sketch/ns">
    <!-- Generator: Sketch 3.3.3 (12081) - http://www.bohemiancoding.com/sketch -->
    <title>Oval 17 Copy 6 + Imported Layers Copy 3</title>
    <desc>Created with Sketch.</desc>
    <defs></defs>
    <g id="Layouts" stroke="none" stroke-width="1" fill="none" fill-rule="evenodd" sketch:type="MSPage">
        <g id="EKiP-Footer" sketch:type="MSArtboardGroup" transform="translate(-702.000000, -111.000000)" stroke="#2D6C35" stroke-width="1.2">
            <g id="Footer-Simple" sketch:type="MSLayerGroup" transform="translate(0.000000, 38.000000)">
                <g id="Oval-17-Copy-6-+-Imported-Layers-Copy-3" transform="translate(703.000000, 74.000000)" sketch:type="MSShapeGroup">
                    <ellipse id="Oval-17-Copy-6" cx="15.6961614" cy="15.6961614" rx="15.6961614" ry="15.6961614"></ellipse>
                    <path d="M16.4284429,24.9522759 L16.4284429,16.3073181 L19.3484963,16.3073181 L19.7856406,12.9381293 L16.4284429,12.9381293 L16.4284429,10.7871356 C16.4284429,9.81161144 16.7009518,9.14691256 18.1085679,9.14691256 L19.9039053,9.14607354 L19.9039053,6.13269452 C19.5933387,6.09177608 18.5276575,6 17.287859,6 C14.6994143,6 12.9274572,7.57006792 12.9274572,10.4535276 L12.9274572,12.9381293 L10,12.9381293 L10,16.3073181 L12.9274572,16.3073181 L12.9274572,24.9522759 L16.4284429,24.9522759 L16.4284429,24.9522759 Z" id="Imported-Layers-Copy-3"></path>
                </g>
            </g>
        </g>
    </g>
</svg>