<?xml version="1.0" encoding="UTF-8" standalone="no"?>
<svg width="33px" height="33px" viewBox="0 0 33 33" version="1.1" xmlns="http://www.w3.org/2000/svg" xmlns:xlink="http://www.w3.org/1999/xlink" xmlns:sketch="http://www.bohemiancoding.com/sketch/ns">
    <!-- Generator: Sketch 3.3.3 (12081) - http://www.bohemiancoding.com/sketch -->
    <title>Oval 17 Copy 7 + Imported Layers Copy 4</title>
    <desc>Created with Sketch.</desc>
    <defs></defs>
    <g id="Layouts" stroke="none" stroke-width="1" fill="none" fill-rule="evenodd" sketch:type="MSPage">
        <g id="EKiP-Footer" sketch:type="MSArtboardGroup" transform="translate(-598.000000, -111.000000)" stroke="#2D6C35" stroke-width="1.2">
            <g id="Footer-Simple" sketch:type="MSLayerGroup" transform="translate(0.000000, 38.000000)">
                <g id="Oval-17-Copy-7-+-Imported-Layers-Copy-4" transform="translate(599.000000, 74.000000)" sketch:type="MSShapeGroup">
                    <ellipse id="Oval-17-Copy-7" cx="15.6961614" cy="15.6961614" rx="15.6961614" ry="15.6961614"></ellipse>
                    <path d="M23.987099,10.5138087 C23.3989325,10.7705806 22.766791,10.9441793 22.103247,11.0221721 C22.7804747,10.6226533 23.3005734,9.98996181 23.5454771,9.23605055 C22.9117566,9.60604151 22.209793,9.87472816 21.4626263,10.0194897 C20.8643432,9.39203616 20.011917,9 19.0685584,9 C17.2570431,9 15.7884982,10.4454858 15.7884982,12.2283265 C15.7884982,12.4814146 15.817503,12.7277683 15.8734075,12.9641066 C13.1474799,12.8294755 10.7306643,11.5441771 9.11294334,9.59090342 C8.83061408,10.0677244 8.66886538,10.6223079 8.66886538,11.2139596 C8.66886538,12.3340053 9.24796784,13.3221828 10.1279954,13.9011714 C9.59035347,13.8844217 9.08464024,13.7391421 8.64237509,13.4973356 C8.64214118,13.5108621 8.6420827,13.5243309 8.6420827,13.5379149 C8.6420827,15.1022031 9.77268624,16.4070716 11.2731598,16.703617 C10.9979063,16.7773504 10.7081504,16.816836 10.4090381,16.816836 C10.1977005,16.816836 9.99221069,16.7965752 9.79192533,16.7589314 C10.2093376,18.0415245 11.42064,18.9749631 12.8559112,19.0010375 C11.7333776,19.8669015 10.3190998,20.3830354 8.78242864,20.3830354 C8.51764263,20.3830354 8.25654069,20.3677247 8,20.3379665 C9.45152793,21.2539071 11.1755609,21.7884025 13.027835,21.7884025 C19.0608978,21.7884025 22.3599632,16.8689847 22.3599632,12.602692 C22.3599632,12.4627654 22.3568054,12.3235295 22.3504898,12.185042 C22.991286,11.7298633 23.5474068,11.1612353 23.987099,10.5138087 L23.987099,10.5138087 Z" id="Imported-Layers-Copy-4" stroke-linejoin="round"></path>
                </g>
            </g>
        </g>
    </g>
</svg>