<?xml version="1.0" encoding="UTF-8" standalone="no"?>
<!-- Generator: Adobe Illustrator 15.0.0, SVG Export Plug-In . SVG Version: 6.00 Build 0)  -->

<svg
   xmlns:dc="http://purl.org/dc/elements/1.1/"
   xmlns:cc="http://creativecommons.org/ns#"
   xmlns:rdf="http://www.w3.org/1999/02/22-rdf-syntax-ns#"
   xmlns:svg="http://www.w3.org/2000/svg"
   xmlns="http://www.w3.org/2000/svg"
   xmlns:sodipodi="http://sodipodi.sourceforge.net/DTD/sodipodi-0.dtd"
   xmlns:inkscape="http://www.inkscape.org/namespaces/inkscape"
   version="1.1"
   id="Layer_1"
   x="0px"
   y="0px"
   width="271.233px"
   height="423.288px"
   viewBox="0 0 271.233 423.288"
   enable-background="new 0 0 271.233 423.288"
   xml:space="preserve"
   inkscape:version="0.91 r13725"
   sodipodi:docname="voucher-rules.svg"><metadata
     id="metadata135"><rdf:RDF><cc:Work
         rdf:about=""><dc:format>image/svg+xml</dc:format><dc:type
           rdf:resource="http://purl.org/dc/dcmitype/StillImage" /><dc:title></dc:title></cc:Work></rdf:RDF></metadata><defs
     id="defs133"><clipPath
       clipPathUnits="userSpaceOnUse"
       id="clipPath3407"><path
         d="m 123.386,217.231 c 0.407,-0.312 4.277,-10.663 4.277,-10.663 l 0,0 c 4.908,3.869 17.569,18.418 18.504,20.009 l 0,0 c 0.935,1.592 -1.635,6.889 -1.635,6.889 l 0,0 -10.087,0.49 c -0.701,0.511 -1.576,0.743 -2.546,0.743 l 0,0 c -6.554,0 -17.465,-10.59 -8.513,-17.468"
         id="path3409"
         inkscape:connector-curvature="0" /></clipPath><clipPath
       clipPathUnits="userSpaceOnUse"
       id="clipPath3423"><path
         d="M 0,792 612,792 612,0 0,0 0,792 Z"
         id="path3425"
         inkscape:connector-curvature="0" /></clipPath><clipPath
       clipPathUnits="userSpaceOnUse"
       id="clipPath3505"><path
         d="M 0,792 612,792 612,0 0,0 0,792 Z"
         id="path3507"
         inkscape:connector-curvature="0" /></clipPath><clipPath
       clipPathUnits="userSpaceOnUse"
       id="clipPath3533"><path
         d="M 0,792 612,792 612,0 0,0 0,792 Z"
         id="path3535"
         inkscape:connector-curvature="0" /></clipPath><clipPath
       clipPathUnits="userSpaceOnUse"
       id="clipPath3407-4"><path
         d="m 123.386,217.231 c 0.407,-0.312 4.277,-10.663 4.277,-10.663 l 0,0 c 4.908,3.869 17.569,18.418 18.504,20.009 l 0,0 c 0.935,1.592 -1.635,6.889 -1.635,6.889 l 0,0 -10.087,0.49 c -0.701,0.511 -1.576,0.743 -2.546,0.743 l 0,0 c -6.554,0 -17.465,-10.59 -8.513,-17.468"
         id="path3409-5"
         inkscape:connector-curvature="0" /></clipPath><clipPath
       clipPathUnits="userSpaceOnUse"
       id="clipPath3423-4"><path
         d="M 0,792 612,792 612,0 0,0 0,792 Z"
         id="path3425-3"
         inkscape:connector-curvature="0" /></clipPath><clipPath
       clipPathUnits="userSpaceOnUse"
       id="clipPath3505-0"><path
         d="M 0,792 612,792 612,0 0,0 0,792 Z"
         id="path3507-6"
         inkscape:connector-curvature="0" /></clipPath><clipPath
       clipPathUnits="userSpaceOnUse"
       id="clipPath3533-4"><path
         d="M 0,792 612,792 612,0 0,0 0,792 Z"
         id="path3535-7"
         inkscape:connector-curvature="0" /></clipPath></defs><sodipodi:namedview
     pagecolor="#ffffff"
     bordercolor="#666666"
     borderopacity="1"
     objecttolerance="10"
     gridtolerance="10"
     guidetolerance="10"
     inkscape:pageopacity="0"
     inkscape:pageshadow="2"
     inkscape:window-width="1152"
     inkscape:window-height="816"
     id="namedview131"
     showgrid="false"
     inkscape:zoom="1.1150801"
     inkscape:cx="135.6165"
     inkscape:cy="156.34941"
     inkscape:window-x="0"
     inkscape:window-y="0"
     inkscape:window-maximized="0"
     inkscape:current-layer="g3965" /><g
     id="g3965"
     transform="matrix(0.80750966,0,0,0.80750966,118.13931,277.47865)"><g
       id="g3403"
       transform="matrix(1.25,0,0,-1.25,-240.49904,416.95518)"><g
         clip-path="url(#clipPath3407-4)"
         id="g3405"><g
           transform="translate(130.9361,219.2369)"
           id="g3411"><path
             inkscape:connector-curvature="0"
             id="path3413"
             style="fill:#78442c;fill-opacity:1;fill-rule:nonzero;stroke:none"
             d="M 0,0 C 0.354,0.196 0.808,0.06 1.008,-0.301 1.209,-0.666 1.082,-1.118 0.727,-1.314 0.37,-1.511 -0.08,-1.375 -0.281,-1.013 -0.48,-0.653 -0.356,-0.197 0,0" /></g><g
           transform="translate(128.8433,215.949)"
           id="g3415"><path
             inkscape:connector-curvature="0"
             id="path3417"
             style="fill:#78442c;fill-opacity:1;fill-rule:nonzero;stroke:none"
             d="m 0,0 c 0.303,3.229 1.654,5.529 4.022,6.838 l 0.202,0.109 c 0.11,0.057 0.209,0.179 0.232,0.314 L 4.912,9.707 9.198,10.184 8.905,8.819 C 8.876,8.694 8.907,8.559 8.985,8.458 9.064,8.353 9.182,8.29 9.315,8.281 c 1.731,-0.105 4.513,-0.61 4.54,-0.613 0.14,-0.027 0.282,0.016 0.384,0.109 0.103,0.095 0.155,0.235 0.141,0.375 -0.272,2.61 0.333,3.36 0.719,3.573 0.153,0.085 0.313,0.11 0.446,0.113 C 15.423,8.643 16.996,6.625 17.846,5.774 17.308,5.558 16.815,5.514 16.373,5.645 15.584,5.879 15.19,6.607 15.186,6.617 15.115,6.75 14.978,6.841 14.828,6.853 14.676,6.866 14.527,6.799 14.436,6.68 12.893,4.637 11.163,2.981 9.15,1.614 9.042,1.538 8.969,1.416 8.957,1.282 8.946,1.149 8.995,1.015 9.093,0.922 L 10.655,-0.581 10.653,-0.584 9.682,-1.624 7.025,0.091 C 6.892,0.177 6.723,0.187 6.581,0.116 L 6.475,0.064 C 6.359,0.004 6.234,-0.057 6.124,-0.109 3.863,-1.178 2.152,-1.231 1.36,-1.174 l 0.113,0.339 c 0.04,0.12 0.029,0.25 -0.034,0.361 -0.062,0.112 -0.168,0.188 -0.291,0.217 L 0,0 Z m -0.709,-0.342 c -0.007,-0.119 0.071,-0.224 0.186,-0.25 L 0.747,-0.873 0.546,-1.469 C 0.525,-1.536 0.53,-1.605 0.561,-1.662 0.594,-1.721 0.646,-1.761 0.712,-1.778 0.806,-1.801 3.051,-2.327 6.416,-0.734 l 0.082,0.039 c 0.054,0.025 0.111,0.051 0.167,0.079 l 0.107,0.055 2.849,-1.84 c 0.078,-0.047 0.171,-0.05 0.248,-0.007 l 0.023,0.013 c 0.013,0.009 0.025,0.02 0.036,0.032 l 1.526,1.63 c 0.089,0.096 0.085,0.242 -0.01,0.332 l -1.67,1.608 0.205,0.146 c 1.713,1.223 3.273,2.716 4.637,4.436 l 0.154,0.196 0.165,-0.187 c 0.243,-0.272 0.653,-0.635 1.23,-0.81 0.746,-0.226 1.571,-0.093 2.449,0.393 l 0.14,0.08 c 0.067,0.039 0.11,0.11 0.115,0.189 0.004,0.081 -0.031,0.158 -0.095,0.205 -0.117,0.088 -2.862,2.211 -2.52,6.341 0.01,0.105 -0.054,0.204 -0.153,0.238 -0.165,0.054 -0.748,0.207 -1.331,-0.115 -0.863,-0.477 -1.238,-1.711 -1.116,-3.666 l 0.017,-0.262 -0.26,0.044 C 12.431,8.6 11.021,8.819 9.869,8.921 L 9.634,8.943 10,10.641 c 0.016,0.073 -0.005,0.153 -0.055,0.208 -0.052,0.057 -0.128,0.085 -0.204,0.077 L 4.51,10.346 C 4.408,10.336 4.325,10.256 4.306,10.152 L 3.829,7.589 3.78,7.477 3.694,7.429 C 1.018,5.95 -0.464,3.334 -0.709,-0.342" /></g></g></g><g
       id="g3419"
       transform="matrix(1.25,0,0,-1.25,-240.49904,416.95518)"><g
         clip-path="url(#clipPath3423-4)"
         id="g3421"><g
           transform="translate(194.3657,214.7571)"
           id="g3427"><path
             inkscape:connector-curvature="0"
             id="path3429"
             style="fill:#e75c24;fill-opacity:1;fill-rule:nonzero;stroke:none"
             d="m 0,0 c 0,-8.619 -6.987,-15.606 -15.606,-15.606 -8.619,0 -15.605,6.987 -15.605,15.606 0,8.619 6.986,15.606 15.605,15.606 C -6.987,15.606 0,8.619 0,0" /></g><path
           inkscape:connector-curvature="0"
           id="path3431"
           style="fill:#78442c;fill-opacity:1;fill-rule:nonzero;stroke:none"
           d="m 272.625,555.738 -1,0 0,2 1,0 0,-2 z" /><path
           inkscape:connector-curvature="0"
           id="path3433"
           style="fill:#78442c;fill-opacity:1;fill-rule:nonzero;stroke:none"
           d="m 272.625,548.791 -1,0 0,3.97 1,0 0,-3.97 z m 0,-6.947 -1,0 0,3.97 1,0 0,-3.97 z m 0,-6.947 -1,0 0,3.97 1,0 0,-3.97 z m 0,-6.947 -1,0 0,3.97 1,0 0,-3.97 z m 0,-6.948 -1,0 0,3.97 1,0 0,-3.97 z m 0,-6.946 -1,0 0,3.97 1,0 0,-3.97 z m 0,-6.948 -1,0 0,3.97 1,0 0,-3.97 z m 0,-6.947 -1,0 0,3.97 1,0 0,-3.97 z m 0,-6.947 -1,0 0,3.97 1,0 0,-3.97 z m 0,-6.947 -1,0 0,3.97 1,0 0,-3.97 z m 0,-6.947 -1,0 0,3.97 1,0 0,-3.97 z m 0,-6.947 -1,0 0,3.97 1,0 0,-3.97 z m 0,-6.947 -1,0 0,3.97 1,0 0,-3.97 z m 0,-6.947 -1,0 0,3.97 1,0 0,-3.97 z m 0,-6.947 -1,0 0,3.97 1,0 0,-3.97 z m 0,-6.948 -1,0 0,3.97 1,0 0,-3.97 z m 0,-6.946 -1,0 0,3.97 1,0 0,-3.97 z m 0,-6.948 -1,0 0,3.97 1,0 0,-3.97 z m 0,-6.947 -1,0 0,3.97 1,0 0,-3.97 z m 0,-6.947 -1,0 0,3.97 1,0 0,-3.97 z m 0,-6.947 -1,0 0,3.97 1,0 0,-3.97 z m 0,-6.947 -1,0 0,3.97 1,0 0,-3.97 z m 0,-6.947 -1,0 0,3.97 1,0 0,-3.97 z m 0,-6.947 -1,0 0,3.97 1,0 0,-3.97 z m 0,-6.947 -1,0 0,3.97 1,0 0,-3.97 z m 0,-6.948 -1,0 0,3.97 1,0 0,-3.97 z m 0,-6.946 -1,0 0,3.97 1,0 0,-3.97 z m 0,-6.947 -1,0 0,3.97 1,0 0,-3.97 z m 0,-6.948 -1,0 0,3.97 1,0 0,-3.97 z m 0,-6.947 -1,0 0,3.97 1,0 0,-3.97 z m 0,-6.947 -1,0 0,3.97 1,0 0,-3.97 z m 0,-6.946 -1,0 0,3.97 1,0 0,-3.97 z m 0,-6.948 -1,0 0,3.97 1,0 0,-3.97 z" /><g
           transform="translate(274.1245,321.0068)"
           id="g3435"><path
             inkscape:connector-curvature="0"
             id="path3437"
             style="fill:#78442c;fill-opacity:1;fill-rule:nonzero;stroke:none"
             d="m 0,0 -2.5,0 0,2.5 1,0 L -1.5,1 0,1 0,0 Z" /></g><path
           inkscape:connector-curvature="0"
           id="path3439"
           style="fill:#78442c;fill-opacity:1;fill-rule:nonzero;stroke:none"
           d="m 280.913,321.007 -3.879,0 0,1 3.879,0 0,-1 z m 6.788,0 -3.879,0 0,1 3.879,0 0,-1 z m 6.787,0 -3.879,0 0,1 3.879,0 0,-1 z m 6.788,0 -3.879,0 0,1 3.879,0 0,-1 z m 6.788,0 -3.879,0 0,1 3.879,0 0,-1 z" /><g
           transform="translate(313.4736,319.5068)"
           id="g3441"><path
             inkscape:connector-curvature="0"
             id="path3443"
             style="fill:#78442c;fill-opacity:1;fill-rule:nonzero;stroke:none"
             d="m 0,0 -1,0 0,1.5 -1.5,0 0,1 L 0,2.5 0,0 Z" /></g><path
           inkscape:connector-curvature="0"
           id="path3445"
           style="fill:#78442c;fill-opacity:1;fill-rule:nonzero;stroke:none"
           d="m 313.474,312.566 -1,0 0,3.966 1,0 0,-3.966 z" /><path
           inkscape:connector-curvature="0"
           id="path3447"
           style="fill:#78442c;fill-opacity:1;fill-rule:nonzero;stroke:none"
           d="m 313.474,307.593 -1,0 0,2 1,0 0,-2 z" /><g
           transform="translate(328.5647,297.7466)"
           id="g3449"><path
             inkscape:connector-curvature="0"
             id="path3451"
             style="fill:#e75c24;fill-opacity:1;fill-rule:nonzero;stroke:none"
             d="m 0,0 c 0,-8.619 -6.987,-15.606 -15.606,-15.606 -8.619,0 -15.605,6.987 -15.605,15.606 0,8.619 6.986,15.606 15.605,15.606 C -6.987,15.606 0,8.619 0,0" /></g><g
           transform="translate(287.73,573.3435)"
           id="g3453"><path
             inkscape:connector-curvature="0"
             id="path3455"
             style="fill:#e75c24;fill-opacity:1;fill-rule:nonzero;stroke:none"
             d="m 0,0 c 0,-8.619 -6.987,-15.606 -15.606,-15.606 -8.619,0 -15.605,6.987 -15.605,15.606 0,8.619 6.986,15.606 15.605,15.606 C -6.987,15.606 0,8.619 0,0" /></g><g
           transform="translate(312.9587,312.6025)"
           id="g3457"><path
             inkscape:connector-curvature="0"
             id="path3459"
             style="fill:#78442c;fill-opacity:1;fill-rule:nonzero;stroke:none"
             d="m 0,0 c -8.191,0 -14.855,-6.665 -14.855,-14.856 0,-8.192 6.664,-14.856 14.855,-14.856 8.191,0 14.856,6.664 14.856,14.856 C 14.856,-6.665 8.191,0 0,0 m 0,-31.212 c -9.019,0 -16.355,7.337 -16.355,16.356 0,9.018 7.336,16.356 16.355,16.356 9.019,0 16.356,-7.338 16.356,-16.356 0,-9.019 -7.337,-16.356 -16.356,-16.356" /></g><g
           transform="translate(198.5332,269.8671)"
           id="g3461"><path
             inkscape:connector-curvature="0"
             id="path3463"
             style="fill:#78442c;fill-opacity:1;fill-rule:nonzero;stroke:none"
             d="M 0,0 1.509,3.515 5.842,1.655 9.02,0.29 14.678,-2.138 c 0.013,-0.035 0.037,-0.045 0.062,-0.055 l 2.878,-1.664 -1.344,-3.129 -1.155,0.496 c -0.027,0.667 -0.426,1.266 -1.076,1.545 -0.626,0.269 -1.359,0.156 -1.861,-0.284 L 4.165,-1.788 C 4.138,-1.121 3.739,-0.522 3.089,-0.243 2.463,0.026 1.73,-0.087 1.228,-0.527 L 0.024,-0.01 0,0 Z m 1.516,-1.649 c 0.021,0.048 0.031,0.072 0.052,0.121 0.144,0.337 0.461,0.543 0.802,0.539 0.117,0.007 0.247,-0.021 0.368,-0.072 0.12,-0.052 0.23,-0.128 0.306,-0.217 C 3.271,-1.547 3.35,-1.894 3.205,-2.231 3.184,-2.279 3.174,-2.303 3.153,-2.352 2.94,-2.716 2.468,-2.884 2.059,-2.709 1.65,-2.533 1.447,-2.075 1.516,-1.649 m 10.93,-4.692 c 0.021,0.048 0.031,0.073 0.052,0.121 0.144,0.337 0.461,0.543 0.802,0.539 0.116,0.007 0.247,-0.021 0.368,-0.072 0.12,-0.052 0.23,-0.128 0.306,-0.217 0.226,-0.269 0.305,-0.616 0.161,-0.953 -0.021,-0.048 -0.031,-0.072 -0.052,-0.12 -0.213,-0.365 -0.685,-0.533 -1.094,-0.358 -0.409,0.176 -0.588,0.623 -0.543,1.06 M 16.173,2.01 14.785,-1.158 9.85,0.961 11.214,4.139 16.173,2.01 Z M 9.047,5.069 10.347,4.511 8.973,1.309 6.782,2.249 9.047,5.069 Z M 0.852,4.31 -1.018,-0.048 c -0.104,-0.24 0.006,-0.516 0.247,-0.619 l 1.469,-0.63 c -0.3,-0.898 0.133,-1.882 0.999,-2.254 0.867,-0.372 1.879,-0.008 2.299,0.838 L 11.652,-6 c -0.324,-0.887 0.108,-1.871 0.975,-2.243 0.891,-0.383 1.903,-0.019 2.323,0.827 l 1.42,-0.609 c 0.241,-0.104 0.516,0.006 0.62,0.247 l 1.694,3.948 c 0.083,0.193 -0.003,0.458 -0.209,0.575 l -2.878,1.663 1.594,3.649 c 0.052,0.121 0.056,0.262 0.014,0.365 -0.065,0.113 -0.14,0.203 -0.261,0.255 L 9.12,6.035 C 8.927,6.118 8.707,6.07 8.576,5.898 L 5.915,2.621 1.461,4.533 C 1.245,4.626 0.98,4.54 0.852,4.31" /></g><g
           transform="translate(198.5332,269.8671)"
           id="g3465"><path
             inkscape:connector-curvature="0"
             id="path3467"
             style="fill:none;stroke:#ffffff;stroke-width:0.1;stroke-linecap:butt;stroke-linejoin:miter;stroke-miterlimit:10;stroke-dasharray:none;stroke-opacity:1"
             d="M 0,0 1.509,3.515 5.842,1.655 9.02,0.29 14.678,-2.138 c 0.013,-0.035 0.037,-0.045 0.062,-0.055 l 2.878,-1.664 -1.344,-3.129 -1.155,0.496 c -0.027,0.667 -0.426,1.266 -1.076,1.545 -0.626,0.269 -1.359,0.156 -1.861,-0.284 L 4.165,-1.788 C 4.138,-1.121 3.739,-0.522 3.089,-0.243 2.463,0.026 1.73,-0.087 1.228,-0.527 L 0.024,-0.01 0,0 Z m 1.516,-1.649 c 0.021,0.048 0.031,0.072 0.052,0.121 0.144,0.337 0.461,0.543 0.802,0.539 0.117,0.007 0.247,-0.021 0.368,-0.072 0.12,-0.052 0.23,-0.128 0.306,-0.217 C 3.271,-1.547 3.35,-1.894 3.205,-2.231 3.184,-2.279 3.174,-2.303 3.153,-2.352 2.94,-2.716 2.468,-2.884 2.059,-2.709 1.65,-2.533 1.447,-2.075 1.516,-1.649 Z m 10.93,-4.692 c 0.021,0.048 0.031,0.073 0.052,0.121 0.144,0.337 0.461,0.543 0.802,0.539 0.116,0.007 0.247,-0.021 0.368,-0.072 0.12,-0.052 0.23,-0.128 0.306,-0.217 0.226,-0.269 0.305,-0.616 0.161,-0.953 -0.021,-0.048 -0.031,-0.072 -0.052,-0.12 -0.213,-0.365 -0.685,-0.533 -1.094,-0.358 -0.409,0.176 -0.588,0.623 -0.543,1.06 z M 16.173,2.01 14.785,-1.158 9.85,0.961 11.214,4.139 16.173,2.01 Z M 9.047,5.069 10.347,4.511 8.973,1.309 6.782,2.249 9.047,5.069 Z M 0.852,4.31 -1.018,-0.048 c -0.104,-0.24 0.006,-0.516 0.247,-0.619 l 1.469,-0.63 c -0.3,-0.898 0.133,-1.882 0.999,-2.254 0.867,-0.372 1.879,-0.008 2.299,0.838 L 11.652,-6 c -0.324,-0.887 0.108,-1.871 0.975,-2.243 0.891,-0.383 1.903,-0.019 2.323,0.827 l 1.42,-0.609 c 0.241,-0.104 0.516,0.006 0.62,0.247 l 1.694,3.948 c 0.083,0.193 -0.003,0.458 -0.209,0.575 l -2.878,1.663 1.594,3.649 c 0.052,0.121 0.056,0.262 0.014,0.365 -0.065,0.113 -0.14,0.203 -0.261,0.255 L 9.12,6.035 C 8.927,6.118 8.707,6.07 8.576,5.898 L 5.915,2.621 1.461,4.533 C 1.245,4.626 0.98,4.54 0.852,4.31 Z" /></g><g
           transform="translate(220.6563,260.8724)"
           id="g3469"><path
             inkscape:connector-curvature="0"
             id="path3471"
             style="fill:#78442c;fill-opacity:1;fill-rule:nonzero;stroke:none"
             d="M 0,0 -3.356,1.441 -2.948,2.392 0.408,0.951 0,0 Z" /></g><g
           transform="translate(220.6563,260.8724)"
           id="g3473"><path
             inkscape:connector-curvature="0"
             id="path3475"
             style="fill:none;stroke:#ffffff;stroke-width:0.1;stroke-linecap:butt;stroke-linejoin:miter;stroke-miterlimit:10;stroke-dasharray:none;stroke-opacity:1"
             d="M 0,0 -3.356,1.441 -2.948,2.392 0.408,0.951 0,0 Z" /></g><g
           transform="translate(224.8601,261.6467)"
           id="g3477"><path
             inkscape:connector-curvature="0"
             id="path3479"
             style="fill:#78442c;fill-opacity:1;fill-rule:nonzero;stroke:none"
             d="M 0,0 -6.625,2.844 -6.217,3.795 0.408,0.951 0,0 Z" /></g><g
           transform="translate(224.8601,261.6467)"
           id="g3481"><path
             inkscape:connector-curvature="0"
             id="path3483"
             style="fill:none;stroke:#ffffff;stroke-width:0.1;stroke-linecap:butt;stroke-linejoin:miter;stroke-miterlimit:10;stroke-dasharray:none;stroke-opacity:1"
             d="M 0,0 -6.625,2.844 -6.217,3.795 0.408,0.951 0,0 Z" /></g><g
           transform="translate(221.535,267.1591)"
           id="g3485"><path
             inkscape:connector-curvature="0"
             id="path3487"
             style="fill:#78442c;fill-opacity:1;fill-rule:nonzero;stroke:none"
             d="M 0,0 -5.187,2.227 -4.779,3.178 0.408,0.951 0,0 Z" /></g><g
           transform="translate(221.535,267.1591)"
           id="g3489"><path
             inkscape:connector-curvature="0"
             id="path3491"
             style="fill:none;stroke:#ffffff;stroke-width:0.1;stroke-linecap:butt;stroke-linejoin:miter;stroke-miterlimit:10;stroke-dasharray:none;stroke-opacity:1"
             d="M 0,0 -5.187,2.227 -4.779,3.178 0.408,0.951 0,0 Z" /></g><g
           transform="translate(272.1245,588.1992)"
           id="g3493"><path
             inkscape:connector-curvature="0"
             id="path3495"
             style="fill:#78442c;fill-opacity:1;fill-rule:nonzero;stroke:none"
             d="m 0,0 c -8.191,0 -14.856,-6.664 -14.856,-14.855 0,-8.192 6.665,-14.856 14.856,-14.856 8.191,0 14.855,6.664 14.855,14.856 C 14.855,-6.664 8.191,0 0,0 m 0,-31.211 c -9.019,0 -16.356,7.337 -16.356,16.356 0,9.018 7.337,16.355 16.356,16.355 9.019,0 16.355,-7.337 16.355,-16.355 0,-9.019 -7.336,-16.356 -16.355,-16.356" /></g></g></g><text
       y="-289.7908"
       x="93.735283"
       id="text3497"
       style="font-variant:normal;font-weight:bold;font-stretch:normal;font-size:28.53412437px;font-family:Bitter;-inkscape-font-specification:Bitter-Bold;writing-mode:lr-tb;fill:#ffffff;fill-opacity:1;fill-rule:nonzero;stroke:none"><tspan
         id="tspan3499"
         y="-289.7908"
         x="93.735283">1</tspan></text>
<g
       id="g3501"
       transform="matrix(1.25,0,0,-1.25,-240.49904,416.95518)"><g
         clip-path="url(#clipPath3505-0)"
         id="g3503"><g
           transform="translate(313.4443,279.2256)"
           id="g3509"><path
             inkscape:connector-curvature="0"
             id="path3511"
             style="fill:#78442c;fill-opacity:1;fill-rule:nonzero;stroke:none"
             d="m 0,0 -1,0.029 c 0.02,0.651 0.029,1.313 0.029,1.986 l 1,0 C 0.029,1.332 0.02,0.66 0,0" /></g><g
           transform="translate(149.04,288.1074)"
           id="g3513"><path
             inkscape:connector-curvature="0"
             id="path3515"
             style="fill:#78442c;fill-opacity:1;fill-rule:nonzero;stroke:none"
             d="m 0,0 c -0.726,0.052 -1.425,0.086 -2.166,0.076 -0.607,0 -1.204,-0.018 -1.79,-0.055 L -4.019,1.02 c 0.621,0.038 1.256,0.058 1.893,0.056 0.721,0 1.459,-0.026 2.196,-0.078 L 0,0 Z M 6.831,-1.191 C 5.536,-0.834 4.232,-0.549 2.953,-0.343 L 3.112,0.644 C 4.427,0.433 5.767,0.14 7.096,-0.227 L 6.831,-1.191 Z m -17.525,-0.148 -0.346,0.938 c 1.238,0.457 2.574,0.813 3.969,1.06 l 0.175,-0.984 c -1.337,-0.237 -2.615,-0.578 -3.798,-1.014 m 24.04,-2.275 c -1.207,0.566 -2.443,1.078 -3.675,1.521 l 0.339,0.942 c 1.261,-0.454 2.526,-0.979 3.761,-1.559 l -0.425,-0.904 z m -29.798,-1.287 -0.71,0.703 c 0.935,0.944 2.049,1.786 3.309,2.5 l 0.494,-0.869 c -1.182,-0.67 -2.222,-1.455 -3.093,-2.334 m 35.983,-2.02 c -1.184,0.646 -2.323,1.275 -3.415,1.884 l -0.114,0.064 0.486,0.873 0.117,-0.065 c 1.087,-0.606 2.225,-1.233 3.406,-1.879 l -0.48,-0.877 z m 6.22,-3.339 c -1.221,0.644 -2.409,1.277 -3.561,1.897 l 0.475,0.881 c 1.149,-0.621 2.334,-1.251 3.552,-1.893 l -0.466,-0.885 z m -45.188,-0.525 -0.992,0.135 c 0.191,1.395 0.647,2.728 1.356,3.962 l 0.867,-0.499 c -0.645,-1.121 -1.059,-2.332 -1.231,-3.598 m 51.455,-2.721 c -1.221,0.621 -2.417,1.237 -3.586,1.843 l 0.46,0.889 c 1.167,-0.606 2.361,-1.22 3.58,-1.841 l -0.454,-0.891 z m 131.763,-2.447 -0.988,0.152 c 0.195,1.27 0.349,2.601 0.454,3.957 l 0.996,-0.078 c -0.106,-1.38 -0.263,-2.736 -0.462,-4.031 m -125.449,-0.71 c -1.225,0.601 -2.429,1.199 -3.614,1.792 l 0.449,0.894 c 1.181,-0.592 2.384,-1.189 3.605,-1.788 l -0.44,-0.898 z m -57.584,-1.115 c -0.597,1.339 -0.989,2.679 -1.167,3.985 l 0.991,0.135 c 0.165,-1.212 0.532,-2.461 1.089,-3.714 l -0.913,-0.406 z m 63.943,-1.947 c -1.229,0.58 -2.442,1.16 -3.64,1.739 l 0.435,0.9 c 1.195,-0.577 2.406,-1.156 3.632,-1.734 l -0.427,-0.905 z m 6.406,-2.962 c -1.234,0.557 -2.457,1.118 -3.667,1.68 l 0.421,0.906 c 1.207,-0.56 2.427,-1.119 3.658,-1.676 l -0.412,-0.91 z m 111.042,-0.189 -0.95,0.316 c 0.405,1.215 0.759,2.503 1.054,3.827 l 0.977,-0.217 c -0.303,-1.358 -0.666,-2.678 -1.081,-3.926 m -177.408,-0.863 c -0.959,1.074 -1.8,2.166 -2.5,3.247 l 0.839,0.543 c 0.673,-1.037 1.482,-2.089 2.407,-3.124 l -0.746,-0.666 z m 72.819,-1.804 c -1.24,0.536 -2.472,1.075 -3.694,1.618 l 0.406,0.914 c 1.219,-0.541 2.447,-1.08 3.685,-1.614 l -0.397,-0.918 z m 6.506,-2.741 c -1.248,0.512 -2.49,1.029 -3.724,1.551 l 0.39,0.921 c 1.231,-0.521 2.468,-1.037 3.713,-1.546 l -0.379,-0.926 z m -74.208,-0.348 c -0.579,0.552 -1.184,1.104 -1.817,1.654 -0.402,0.35 -0.789,0.7 -1.16,1.049 l 0.685,0.729 c 0.362,-0.34 0.739,-0.682 1.132,-1.023 0.644,-0.561 1.26,-1.123 1.85,-1.684 l -0.69,-0.725 z m 169.331,-0.734 -0.856,0.515 c 0.664,1.102 1.272,2.285 1.806,3.516 l 0.918,-0.398 c -0.553,-1.272 -1.181,-2.495 -1.868,-3.633 m -88.558,-1.531 c -1.258,0.486 -2.512,0.979 -3.761,1.479 l 0.371,0.928 c 1.246,-0.498 2.496,-0.989 3.75,-1.474 l -0.36,-0.933 z m 6.616,-2.47 c -1.264,0.455 -2.526,0.92 -3.786,1.392 l 0.351,0.936 c 1.256,-0.471 2.514,-0.934 3.774,-1.387 l -0.339,-0.941 z m -82.718,-0.421 c -0.776,1.014 -1.641,2.034 -2.569,3.033 l 0.732,0.682 c 0.95,-1.023 1.836,-2.069 2.631,-3.108 l -0.794,-0.607 z m 160.217,-1.179 -0.694,0.721 c 0.94,0.907 1.823,1.898 2.621,2.946 l 0.795,-0.605 c -0.829,-1.089 -1.745,-2.118 -2.722,-3.062 M 83.9,-35.67 c -1.271,0.421 -2.543,0.853 -3.813,1.294 l 0.329,0.945 c 1.266,-0.441 2.533,-0.871 3.799,-1.29 L 83.9,-35.67 Z m 6.739,-2.119 c -1.284,0.383 -2.57,0.779 -3.858,1.187 l 0.302,0.954 c 1.283,-0.407 2.563,-0.801 3.842,-1.182 l -0.286,-0.959 z m 58.35,-1.426 -0.488,0.873 c 1.162,0.651 2.271,1.379 3.298,2.166 l 0.609,-0.793 c -1.065,-0.816 -2.215,-1.572 -3.419,-2.246 M -1.86,-39.686 c -0.54,1.157 -1.183,2.322 -1.912,3.462 l 0.842,0.539 c 0.753,-1.177 1.418,-2.381 1.976,-3.577 l -0.906,-0.424 z m 99.303,-0.004 c -1.294,0.336 -2.594,0.689 -3.896,1.057 l 0.271,0.963 c 1.297,-0.366 2.59,-0.718 3.877,-1.054 l -0.252,-0.966 z m 6.876,-1.645 c -1.305,0.281 -2.618,0.583 -3.939,0.903 l 0.236,0.973 c 1.312,-0.318 2.617,-0.618 3.914,-0.899 l -0.211,-0.977 z m 38.099,-0.656 -0.293,0.955 c 1.291,0.396 2.542,0.859 3.718,1.375 l 0.401,-0.916 c -1.211,-0.531 -2.498,-1.007 -3.826,-1.414 m -31.152,-0.673 c -1.315,0.217 -2.642,0.456 -3.979,0.718 l 0.192,0.98 c 1.327,-0.26 2.644,-0.497 3.949,-0.712 l -0.162,-0.986 z m 24.202,-0.843 -0.139,0.99 c 1.349,0.189 2.666,0.429 3.917,0.713 l 0.222,-0.974 c -1.278,-0.291 -2.624,-0.536 -4,-0.729 m -17.187,-0.096 c -1.295,0.13 -2.647,0.293 -4.016,0.483 l 0.137,0.99 c 1.357,-0.187 2.697,-0.349 3.979,-0.478 l -0.1,-0.995 z m 7.07,-0.443 c -1.324,0.028 -2.684,0.091 -4.046,0.186 l 0.069,0.998 c 1.346,-0.094 2.691,-0.156 3.998,-0.184 l -0.021,-1 z m 3.039,-0.002 -0.02,1 c 1.361,0.027 2.702,0.096 3.988,0.202 l 0.083,-0.996 c -1.306,-0.109 -2.67,-0.179 -4.051,-0.206 M 0.168,-46.256 c -0.194,1.271 -0.506,2.557 -0.928,3.822 l 0.948,0.317 c 0.44,-1.32 0.766,-2.661 0.969,-3.988 l -0.989,-0.151 z m 0.929,-7.016 -0.986,0.168 c 0.203,1.189 0.306,2.399 0.306,3.597 l -0.002,0.314 1,0.013 0.002,-0.327 c 0,-1.255 -0.108,-2.521 -0.32,-3.765 m -2.249,-6.795 -0.896,0.445 c 0.596,1.196 1.091,2.425 1.471,3.652 l 0.955,-0.297 c -0.396,-1.278 -0.911,-2.556 -1.53,-3.8 m -44.452,-5.262 c -1.208,0.429 -2.482,0.665 -3.788,0.702 l 0.028,1 c 1.41,-0.04 2.788,-0.296 4.094,-0.759 l -0.334,-0.943 z m 40.515,-0.7 -0.767,0.642 c 0.864,1.033 1.653,2.105 2.345,3.188 l 0.843,-0.539 c -0.716,-1.118 -1.53,-2.226 -2.421,-3.291 m -50.862,-0.088 -0.453,0.892 c 1.237,0.627 2.559,1.079 3.929,1.344 l 0.19,-0.982 c -1.279,-0.246 -2.513,-0.668 -3.666,-1.254 m 15.843,-3.055 c -0.879,1.013 -1.856,1.874 -2.905,2.558 l 0.546,0.838 c 1.127,-0.736 2.175,-1.658 3.114,-2.742 l -0.755,-0.654 z m -20.561,-1.515 -0.92,0.393 c 0.504,1.183 1.394,2.339 2.573,3.343 l 0.649,-0.762 c -1.063,-0.903 -1.859,-1.932 -2.302,-2.974 m 50.505,-0.346 -0.635,0.771 c 1.036,0.854 2.025,1.753 2.938,2.674 l 0.71,-0.703 c -0.936,-0.946 -1.95,-1.868 -3.013,-2.742 m -26.483,-4.052 -0.123,0.297 c -0.476,1.171 -1.02,2.262 -1.617,3.243 l 0.854,0.52 c 0.625,-1.027 1.193,-2.166 1.69,-3.387 l 0.117,-0.286 -0.921,-0.387 z m 20.649,-0.025 -0.51,0.861 c 1.154,0.683 2.277,1.413 3.34,2.171 l 0.581,-0.815 c -1.086,-0.774 -2.234,-1.52 -3.411,-2.217 m 12.665,-1.604 -0.406,0.914 c 1.443,0.641 2.679,1.135 3.781,1.51 l 0.322,-0.947 c -1.073,-0.366 -2.282,-0.848 -3.697,-1.477 m -56.299,-0.4 c -1.305,1.032 -2.098,2.236 -2.357,3.58 l 0.983,0.189 c 0.212,-1.101 0.882,-2.106 1.994,-2.984 l -0.62,-0.785 z m 37.273,-1.176 -0.384,0.924 c 1.223,0.509 2.44,1.072 3.617,1.676 l 0.456,-0.891 c -1.201,-0.614 -2.441,-1.19 -3.689,-1.709 m 12.664,-1.428 -0.43,0.903 3.632,1.742 0.43,-0.903 -3.632,-1.742 z m -43.502,-0.594 c -1.304,0.45 -2.573,0.985 -3.769,1.589 l 0.451,0.893 c 1.156,-0.585 2.382,-1.102 3.644,-1.536 l -0.326,-0.946 z m 24.106,-0.26 -0.256,0.967 c 1.28,0.338 2.562,0.733 3.812,1.169 l 0.33,-0.943 c -1.274,-0.446 -2.581,-0.848 -3.886,-1.193 m -6.989,-1.329 -0.115,0.994 c 0.927,0.106 1.87,0.245 2.814,0.412 -0.682,0.766 -1.32,1.653 -1.9,2.647 l 0.863,0.504 c 0.707,-1.209 1.499,-2.247 2.353,-3.083 l -0.138,-0.14 0.14,-0.697 c -1.344,-0.27 -2.695,-0.484 -4.017,-0.637 m -10.16,-0.001 c -1.371,0.172 -2.722,0.418 -4.015,0.731 l 0.236,0.973 c 1.256,-0.306 2.569,-0.545 3.903,-0.712 l -0.124,-0.992 z m 4.983,-0.304 c -0.649,0 -1.294,0.015 -1.936,0.045 l 0.046,0.998 c 1.314,-0.06 2.643,-0.055 3.976,0.009 l 0.049,-0.998 c -0.714,-0.036 -1.426,-0.053 -2.135,-0.054 m 25.064,-0.346 -0.35,0.938 c 1.106,0.414 2.314,0.914 3.689,1.53 l 0.409,-0.912 c -1.395,-0.625 -2.621,-1.134 -3.748,-1.556 m -10.059,-1.723 c -1.441,0.172 -2.785,0.594 -3.994,1.254 l 0.478,0.878 c 1.098,-0.598 2.321,-0.982 3.635,-1.14 l -0.119,-0.992 z m 3.118,-0.024 -0.094,0.996 c 1.194,0.113 2.456,0.359 3.857,0.753 l 0.27,-0.963 c -1.46,-0.41 -2.779,-0.668 -4.033,-0.786" /></g><g
           transform="translate(152.3579,213.6611)"
           id="g3517"><path
             inkscape:connector-curvature="0"
             id="path3519"
             style="fill:#78442c;fill-opacity:1;fill-rule:nonzero;stroke:none"
             d="M 0,0 -0.174,0.984 C 0.562,1.114 1.259,1.18 1.898,1.18 l 0,-1 C 1.317,0.18 0.678,0.119 0,0" /></g><g
           transform="translate(178.7598,229.6104)"
           id="g3521"><path
             inkscape:connector-curvature="0"
             id="path3523"
             style="fill:#78442c;fill-opacity:1;fill-rule:nonzero;stroke:none"
             d="m 0,0 c -8.191,0 -14.855,-6.665 -14.855,-14.856 0,-8.192 6.664,-14.856 14.855,-14.856 8.191,0 14.856,6.664 14.856,14.856 C 14.856,-6.665 8.191,0 0,0 m 0,-31.212 c -9.019,0 -16.355,7.337 -16.355,16.356 0,9.018 7.336,16.356 16.355,16.356 9.019,0 16.356,-7.338 16.356,-16.356 0,-9.019 -7.337,-16.356 -16.356,-16.356" /></g></g></g><text
       y="158.13808"
       x="-23.991135"
       id="text3525"
       style="font-variant:normal;font-weight:bold;font-stretch:normal;font-size:28.53412437px;font-family:Bitter;-inkscape-font-specification:Bitter-Bold;writing-mode:lr-tb;fill:#ffffff;fill-opacity:1;fill-rule:nonzero;stroke:none"><tspan
         id="tspan3527"
         y="158.13808"
         x="-23.991135">3</tspan></text>
<g
       id="g3529"
       transform="matrix(1.25,0,0,-1.25,-240.49904,416.95518)"><g
         clip-path="url(#clipPath3533-4)"
         id="g3531"><path
           inkscape:connector-curvature="0"
           id="path3537"
           style="fill:#e75c24;fill-opacity:1;fill-rule:nonzero;stroke:none"
           d="m 178.344,237.101 0.832,0 0,-4.099 -0.832,0 0,4.099 z" /><g
           transform="translate(170.6748,233.1893)"
           id="g3539"><path
             inkscape:connector-curvature="0"
             id="path3541"
             style="fill:#e75c24;fill-opacity:1;fill-rule:nonzero;stroke:none"
             d="M 0,0 0.769,0.318 1.487,-1.416 0.719,-1.735 0,0 Z" /></g><g
           transform="translate(164.2365,228.6922)"
           id="g3543"><path
             inkscape:connector-curvature="0"
             id="path3545"
             style="fill:#e75c24;fill-opacity:1;fill-rule:nonzero;stroke:none"
             d="M 0,0 0.588,0.588 1.916,-0.739 1.328,-1.328 0,0 Z" /></g><g
           transform="translate(160.0093,222.0735)"
           id="g3547"><path
             inkscape:connector-curvature="0"
             id="path3549"
             style="fill:#e75c24;fill-opacity:1;fill-rule:nonzero;stroke:none"
             d="M 0,0 0.318,0.769 2.053,0.05 1.735,-0.719 0,0 Z" /></g><path
           inkscape:connector-curvature="0"
           id="path3551"
           style="fill:#e75c24;fill-opacity:1;fill-rule:nonzero;stroke:none"
           d="m 156.416,215.173 4.099,0 0,-0.832 -4.099,0 0,0.832 z" /><g
           transform="translate(160.3278,206.6719)"
           id="g3553"><path
             inkscape:connector-curvature="0"
             id="path3555"
             style="fill:#e75c24;fill-opacity:1;fill-rule:nonzero;stroke:none"
             d="M 0,0 -0.318,0.769 1.416,1.487 1.735,0.719 0,0 Z" /></g><g
           transform="translate(164.8249,200.2336)"
           id="g3557"><path
             inkscape:connector-curvature="0"
             id="path3559"
             style="fill:#e75c24;fill-opacity:1;fill-rule:nonzero;stroke:none"
             d="M 0,0 -0.588,0.588 0.739,1.916 1.328,1.328 0,0 Z" /></g><g
           transform="translate(171.4436,196.0065)"
           id="g3561"><path
             inkscape:connector-curvature="0"
             id="path3563"
             style="fill:#e75c24;fill-opacity:1;fill-rule:nonzero;stroke:none"
             d="M 0,0 -0.769,0.318 -0.05,2.053 0.719,1.735 0,0 Z" /></g><path
           inkscape:connector-curvature="0"
           id="path3565"
           style="fill:#e75c24;fill-opacity:1;fill-rule:nonzero;stroke:none"
           d="m 179.176,192.413 -0.832,0 0,4.099 0.832,0 0,-4.099 z" /><g
           transform="translate(186.8452,196.3249)"
           id="g3567"><path
             inkscape:connector-curvature="0"
             id="path3569"
             style="fill:#e75c24;fill-opacity:1;fill-rule:nonzero;stroke:none"
             d="M 0,0 -0.769,-0.318 -1.487,1.416 -0.719,1.735 0,0 Z" /></g><g
           transform="translate(193.2835,200.8221)"
           id="g3571"><path
             inkscape:connector-curvature="0"
             id="path3573"
             style="fill:#e75c24;fill-opacity:1;fill-rule:nonzero;stroke:none"
             d="M 0,0 -0.588,-0.588 -1.916,0.739 -1.328,1.328 0,0 Z" /></g><g
           transform="translate(197.5107,207.4407)"
           id="g3575"><path
             inkscape:connector-curvature="0"
             id="path3577"
             style="fill:#e75c24;fill-opacity:1;fill-rule:nonzero;stroke:none"
             d="M 0,0 -0.318,-0.769 -2.053,-0.05 -1.735,0.719 0,0 Z" /></g><path
           inkscape:connector-curvature="0"
           id="path3579"
           style="fill:#e75c24;fill-opacity:1;fill-rule:nonzero;stroke:none"
           d="m 201.104,214.341 -4.099,0 0,0.832 4.099,0 0,-0.832 z" /><g
           transform="translate(197.1922,222.8423)"
           id="g3581"><path
             inkscape:connector-curvature="0"
             id="path3583"
             style="fill:#e75c24;fill-opacity:1;fill-rule:nonzero;stroke:none"
             d="M 0,0 0.318,-0.769 -1.416,-1.487 -1.735,-0.719 0,0 Z" /></g><g
           transform="translate(192.6951,229.2806)"
           id="g3585"><path
             inkscape:connector-curvature="0"
             id="path3587"
             style="fill:#e75c24;fill-opacity:1;fill-rule:nonzero;stroke:none"
             d="M 0,0 0.588,-0.588 -0.739,-1.916 -1.328,-1.328 0,0 Z" /></g><g
           transform="translate(186.0764,233.5078)"
           id="g3589"><path
             inkscape:connector-curvature="0"
             id="path3591"
             style="fill:#e75c24;fill-opacity:1;fill-rule:nonzero;stroke:none"
             d="M 0,0 0.769,-0.318 0.05,-2.053 -0.719,-1.735 0,0 Z" /></g><path
           inkscape:connector-curvature="0"
           id="path3593"
           style="fill:#78442c;fill-opacity:1;fill-rule:nonzero;stroke:none"
           d="m 272.625,588.949 -1,0 0,2 1,0 0,-2 z" /><path
           inkscape:connector-curvature="0"
           id="path3595"
           style="fill:#78442c;fill-opacity:1;fill-rule:nonzero;stroke:none"
           d="m 272.625,594.221 -1,0 0,4.362 1,0 0,-4.362 z" /><path
           inkscape:connector-curvature="0"
           id="path3597"
           style="fill:#78442c;fill-opacity:1;fill-rule:nonzero;stroke:none"
           d="m 272.625,601.854 -1,0 0,2 1,0 0,-2 z" /></g></g><text
       y="54.156082"
       x="143.7036"
       id="text3599"
       style="font-variant:normal;font-weight:bold;font-stretch:normal;font-size:28.53412437px;font-family:Bitter;-inkscape-font-specification:Bitter-Bold;writing-mode:lr-tb;fill:#ffffff;fill-opacity:1;fill-rule:nonzero;stroke:none"><tspan
         id="tspan3601"
         y="54.156082"
         x="143.7036">2</tspan></text>
</g></svg>