<?xml version="1.0" standalone="no"?>
<!DOCTYPE svg PUBLIC "-//W3C//DTD SVG 1.1//EN" "http://www.w3.org/Graphics/SVG/1.1/DTD/svg11.dtd" >
<svg xmlns="http://www.w3.org/2000/svg">
<metadata></metadata>
<defs>
<font id="superclarendon_rgbold" horiz-adv-x="880" >
<font-face units-per-em="1000" ascent="775" descent="-225" />
<missing-glyph horiz-adv-x="345" />
<glyph unicode="&#x28;C&#x29;" horiz-adv-x="923" d="M871 368q0 -160 -114 -272t-289 -112q-181 0 -294.5 111t-113.5 273q0 165 119 278t289 113t286.5 -111.5t116.5 -279.5zM799 368q0 143 -98.5 231t-231.5 88q-147 0 -241 -91t-94 -228q0 -141 100.5 -228.5t234.5 -87.5q79 0 143.5 28.5t104 74.5t61 101t21.5 112z M582 324l54 -6q-10 -55 -46.5 -92t-106.5 -37q-91 0 -142.5 45.5t-51.5 139.5q0 83 48 133.5t139 50.5q70 0 112.5 -28t42.5 -78q0 -23 -13.5 -38t-38.5 -15q-24 0 -37 12.5t-13 30.5q0 15 9.5 28t25.5 15q-22 25 -60 25q-47 0 -73.5 -33.5t-26.5 -93.5q0 -131 94 -131 q32 0 55.5 18t28.5 54z" />
<glyph unicode="&#x28;R&#x29;" horiz-adv-x="703" d="M666 460q0 -125 -87 -210t-226 -85q-141 0 -228.5 84.5t-87.5 210.5t92 212.5t224 86.5q133 0 223 -85t90 -214zM590 460q0 105 -70.5 169t-166.5 64q-105 0 -172.5 -67t-67.5 -166q0 -106 71.5 -170t168.5 -64q112 0 174.5 71t62.5 163zM525 391v-16q0 -28 -18.5 -45 t-49.5 -17q-68 0 -68 68v27q0 26 -8.5 35.5t-29.5 9.5h-30v-80q0 -21 46 -21v-36h-161v36q37 0 37 21v187q0 21 -37 21v36h167q50 0 77 -17t27 -60q0 -61 -59 -71q47 -11 47 -65v-31q0 -21 16 -21q15 0 15 21v18h29zM355 570h-34v-80h34q23 0 33 9.5t10 33.5q0 37 -43 37z " />
<glyph horiz-adv-x="1000" />
<glyph horiz-adv-x="1000" />
<glyph unicode="&#xd;" horiz-adv-x="1000" />
<glyph horiz-adv-x="345" />
<glyph unicode=" "  horiz-adv-x="345" />
<glyph unicode="&#x09;" horiz-adv-x="345" />
<glyph unicode="&#xa0;" horiz-adv-x="345" />
<glyph unicode="!" horiz-adv-x="406" d="M242 233h-84q-6 126 -21 215.5t-26.5 135.5t-11.5 76q0 92 104 92q101 0 101 -91q0 -31 -11 -77t-27 -135.5t-24 -215.5zM291 84q0 -38 -26.5 -65t-63.5 -27q-38 0 -65 27t-27 65q0 37 27 63.5t65 26.5q37 0 63.5 -26.5t26.5 -63.5z" />
<glyph unicode="&#x22;" horiz-adv-x="435" d="M354 431h-64q-8 100 -25 171.5t-17 99.5q0 65 76 65q74 0 74 -64q0 -31 -17 -103t-27 -169zM143 431h-64q-8 100 -25 171.5t-17 99.5q0 65 76 65q74 0 74 -64q0 -31 -17 -103t-27 -169z" />
<glyph unicode="#" horiz-adv-x="596" d="M504 666l-33 -184h81v-81h-95l-27 -149h89v-82h-103l-31 -170h-88l30 170h-111l-31 -170h-88l30 170h-80v82h95l27 149h-89v81h104l33 184h87l-33 -184h113l33 184h87zM369 401h-112l-27 -149h112z" />
<glyph unicode="$" horiz-adv-x="608" d="M530 616v-172l-85 -6q-18 85 -113 103v-109q46 -8 75 -15t61.5 -20t50.5 -29t30 -41.5t12 -59.5q0 -46 -20 -78.5t-55 -49t-72.5 -23.5t-81.5 -7v-109h-53v113q-34 4 -70.5 20t-46.5 16q-9 0 -13.5 -5.5t-11.5 -22.5l-83 -6v178l83 5q9 -41 48 -69t94 -37v113 q-122 21 -173.5 58t-51.5 113q0 69 50 109.5t138 40.5q19 0 37 -3v120h53v-129q19 -5 49.5 -17.5t40.5 -12.5q20 0 30 32h78zM332 296v-108q79 0 79 51q0 24 -20 36.5t-59 20.5zM279 443v103q-77 -7 -77 -45q0 -24 19 -36t58 -22z" />
<glyph unicode="%" horiz-adv-x="810" d="M669 682l-419 -682h-98l415 682h102zM225 682q71 0 115 -39.5t44 -124.5q0 -76 -43.5 -121t-121.5 -45q-70 0 -114 38t-44 120q0 80 41.5 126t122.5 46zM226 630q-34 0 -50 -24t-16 -77q0 -72 14 -98.5t45 -26.5q34 0 49 26t15 84q0 68 -13 92t-44 24zM596 330 q71 0 115 -39.5t44 -124.5q0 -76 -43.5 -121t-121.5 -45q-70 0 -114 38t-44 120q0 80 41.5 126t122.5 46zM597 278q-33 0 -49 -24t-16 -77q0 -72 13.5 -98.5t44.5 -26.5q34 0 49.5 26t15.5 84q0 68 -13.5 92t-44.5 24z" />
<glyph unicode="&#x26;" horiz-adv-x="955" d="M840 446v-82q-44 0 -60 -9t-16 -33q0 -117 -96 -213q37 -20 69 -20t52 15t20 46v49h70v-49q0 -77 -42 -121.5t-125 -44.5q-73 0 -155 46q-94 -46 -197 -46q-60 0 -111.5 12.5t-94.5 38.5t-67.5 72.5t-24.5 108.5q0 150 163 232q-32 66 -32 129q0 88 61 135t157 47 q70 0 113.5 -39t43.5 -108q0 -68 -39.5 -110t-112.5 -82q76 -159 168 -251q64 64 64 153q0 24 -16.5 33t-60.5 9v82h269zM281 330q-58 -48 -58 -112q0 -60 40 -96.5t97 -36.5q54 0 98 17q-112 99 -177 228zM379 514q92 43 92 107q0 56 -53 56q-29 0 -43 -21t-14 -52 q0 -39 18 -90z" />
<glyph unicode="'" horiz-adv-x="224" d="M143 431h-64q-8 100 -25 171.5t-17 99.5q0 65 76 65q74 0 74 -64q0 -31 -17 -103t-27 -169z" />
<glyph unicode="(" horiz-adv-x="396" d="M335 822l24 -45q-95 -33 -141.5 -140t-46.5 -316q0 -208 46.5 -320.5t141.5 -159.5l-26 -46q-71 23 -121.5 58.5t-92 95t-62 152.5t-20.5 220q0 103 14.5 182t39 131.5t63.5 90.5t81.5 59.5t99.5 37.5z" />
<glyph unicode=")" horiz-adv-x="396" d="M37 776l24 46q71 -22 122 -55.5t92.5 -91.5t62 -150.5t20.5 -220.5q0 -127 -20.5 -217.5t-62 -147.5t-92 -89.5t-122.5 -54.5q-20 38 -24 46q94 37 141 146t47 317t-46.5 318t-141.5 154z" />
<glyph unicode="*" horiz-adv-x="643" d="M393 550h75q87 0 87 -48q0 -18 -13 -30.5t-35 -12.5q-25 0 -78 25.5t-55 26.5q-3 1 -7.5 2t-5.5 1q-5 0 -5 -5q0 -9 44.5 -59.5t44.5 -73.5q0 -15 -14 -29t-30 -14q-24 0 -40 25t-22 55.5t-12.5 55.5t-13.5 25q-8 0 -14.5 -25t-12.5 -55.5t-22 -55.5t-39 -25 q-19 0 -31.5 12.5t-12.5 31.5q0 23 45 74t45 58q0 5 -7 5q-1 0 -5.5 -1t-7.5 -2t-55.5 -26t-77.5 -25q-22 0 -34.5 12.5t-12.5 29.5q0 48 89 48h80q20 0 20 7q0 9 -37.5 23t-75 34.5t-37.5 45.5q0 15 13.5 28t31.5 13t39.5 -17.5t37.5 -38.5t31.5 -38.5t21.5 -17.5q7 0 7 12 q0 20 -11 60.5t-11 61.5q0 23 12 36t31 13q18 0 31.5 -13t13.5 -36q0 -21 -12 -61t-12 -62q0 -11 7 -11q8 0 30.5 28t50 56t49.5 28q15 0 30 -13.5t15 -27.5q0 -25 -37.5 -46t-75 -35t-37.5 -23q0 -6 27 -6z" />
<glyph unicode="+" horiz-adv-x="567" d="M530 398v-87h-203v-198h-89v198h-201v87h201v197h89v-197h203z" />
<glyph unicode="," horiz-adv-x="352" d="M122 -154l-25 43q79 39 79 94q0 21 -17 21q-76 0 -76 80q0 41 25 64t65 23q46 0 72.5 -29.5t26.5 -81.5q0 -78 -36.5 -127t-113.5 -87z" />
<glyph unicode="-" horiz-adv-x="336" d="M308 332v-91h-281v91h281z" />
<glyph unicode="." horiz-adv-x="352" d="M266 84q0 -38 -26.5 -65t-63.5 -27q-38 0 -65 27t-27 65q0 37 27 63.5t65 26.5q37 0 63.5 -26.5t26.5 -63.5z" />
<glyph unicode="/" horiz-adv-x="452" d="M423 744l-293 -774h-104l294 774h103z" />
<glyph unicode="0" horiz-adv-x="732" d="M366 682q107 0 173 -31.5t102 -110.5t36 -214q0 -100 -19 -167t-60 -105.5t-96 -54t-136 -15.5t-136.5 15.5t-96 54t-59.5 105.5t-19 167q0 135 36 214t102 110.5t173 31.5zM366 590q-65 0 -89.5 -62t-24.5 -201q0 -154 22 -201.5t92 -47.5q47 0 70.5 19.5t33.5 71.5 t10 158q0 139 -24.5 201t-89.5 62z" />
<glyph unicode="1" horiz-adv-x="548" d="M388 593v-469q0 -43 106 -43v-81h-426v81q124 0 124 43v366h-133l-4 77q140 3 193 119l146 -11q-6 -54 -6 -82z" />
<glyph unicode="2" horiz-adv-x="678" d="M567 182h54q3 -17 3 -61q0 -58 -32 -95t-97 -37q-77 0 -150 30.5t-124 30.5q-65 0 -94 -50h-72q13 69 39 122.5t57 86t66 59t67.5 47t58.5 43t42 55.5t16 77q0 52 -30.5 82t-82.5 30q-84 0 -111 -52q22 -1 39.5 -21t17.5 -48q0 -35 -22 -58t-60 -23q-37 0 -58 24t-21 63 q0 73 66.5 134t191.5 61q54 0 100 -10.5t86 -33t63 -64.5t23 -100q0 -57 -21.5 -99.5t-57 -67.5t-78 -43.5t-87.5 -32.5t-83 -28t-66 -36t-36 -52q54 48 133 48q49 0 105 -19t85 -19q61 0 70 57z" />
<glyph unicode="3" horiz-adv-x="660" d="M254 335l6 60q124 8 124 112q0 94 -108 94q-74 0 -115 -43q28 -2 48 -21.5t20 -47.5q0 -34 -22 -57t-59 -23q-36 0 -57 23.5t-21 61.5q0 33 14 64.5t43 60t80.5 46t119.5 17.5q110 0 181 -41t71 -123q0 -63 -35.5 -99t-113.5 -52q87 -10 131 -53.5t44 -111.5 q0 -108 -85.5 -163t-214.5 -55q-118 0 -186.5 56.5t-68.5 127.5q0 40 21.5 64t59.5 24q37 0 59.5 -23.5t22.5 -59.5q0 -23 -16 -42t-38 -21q13 -21 50.5 -33.5t79.5 -12.5q57 0 88.5 30t31.5 85q0 79 -35.5 113.5t-119.5 42.5z" />
<glyph unicode="4" horiz-adv-x="702" d="M563 682v-387h91l-12 -92h-79v-77q0 -45 91 -45v-81h-408v81q123 0 123 45v77h-324v76l331 403h187zM369 545l-204 -250h204v250z" />
<glyph unicode="5" horiz-adv-x="680" d="M587 689v-43q-34 -51 -102.5 -80.5t-137.5 -29.5q-80 0 -142 26l-13 -136q61 39 168 39q140 0 202.5 -62.5t62.5 -164.5q0 -67 -25 -117t-69 -79.5t-99 -43.5t-121 -14q-106 0 -183.5 54.5t-77.5 137.5q0 39 21 63t58 24t59.5 -23t22.5 -58q0 -27 -16.5 -47t-36.5 -21 q20 -50 117 -50q146 0 146 181q0 144 -119 144q-84 0 -154 -45l-56 43l27 295q100 -16 252 -16q127 0 216 23z" />
<glyph unicode="6" horiz-adv-x="681" d="M235 332q23 40 73 63t110 23q94 0 150.5 -59t56.5 -152q0 -223 -288 -223q-138 0 -210 81.5t-72 267.5q0 71 17 132t52.5 110.5t97 78t142.5 28.5q101 0 177 -43.5t76 -123.5q0 -38 -21 -59.5t-58 -21.5q-38 0 -60.5 21t-22.5 55q0 27 16.5 44t37.5 18q-35 38 -116 38 q-56 0 -88.5 -21.5t-51 -83t-18.5 -173.5zM348 329q-48 0 -73 -30t-25 -100q0 -82 23 -115t72 -33t74 32t25 108t-24.5 107t-71.5 31z" />
<glyph unicode="7" horiz-adv-x="588" d="M102 502h-54q-3 17 -3 62q0 58 31.5 95t96.5 37q77 0 150 -31t129 -31q28 0 43 10t34 38q6 -11 18 -30.5t16 -26.5q-126 -138 -164 -221t-38 -210q0 -12 1 -37.5t1 -39.5q0 -29 -3.5 -49t-13 -40t-31 -30.5t-54.5 -10.5q-57 0 -85.5 33t-28.5 92q0 245 291 431 q-44 -20 -90 -20q-37 0 -93.5 21t-83.5 21q-58 0 -69 -63z" />
<glyph unicode="8" horiz-adv-x="664" d="M473 379q136 -58 136 -192q0 -102 -75 -152.5t-201 -50.5q-125 0 -201.5 49t-76.5 142q0 60 32.5 104.5t96.5 65.5q-101 61 -101 160q0 90 67.5 133.5t181.5 43.5q113 0 181 -42t68 -124q0 -41 -28 -78t-80 -59zM246 307q-66 -34 -66 -121q0 -52 34.5 -83.5t101.5 -31.5 q68 0 99 21t31 66q0 23 -11.5 42t-34.5 34t-44 25t-56 24t-54 24zM394 417q33 16 48.5 39t15.5 61t-26 61t-81 23q-47 0 -76 -17.5t-29 -54.5t39 -62.5t109 -49.5z" />
<glyph unicode="9" horiz-adv-x="681" d="M169 94q35 -38 118 -38q56 0 87 21t47.5 81.5t16.5 173.5q-22 -40 -69 -62t-108 -22q-94 0 -150 58.5t-56 152.5q0 223 288 223q138 0 210 -83t72 -275q0 -68 -17 -127t-52.5 -108t-97 -77t-142.5 -28q-101 0 -177.5 43.5t-76.5 123.5q0 38 20.5 59.5t58.5 21.5t60 -21 t22 -55q0 -27 -16.5 -44t-37.5 -18zM334 615q-49 0 -74 -32t-25 -108t24.5 -107t72.5 -31t72.5 30t24.5 100q0 83 -23 115.5t-72 32.5z" />
<glyph unicode=":" horiz-adv-x="352" d="M266 84q0 -38 -26.5 -65t-63.5 -27q-38 0 -65 27t-27 65q0 37 27 63.5t65 26.5q37 0 63.5 -26.5t26.5 -63.5zM176 483q37 0 63.5 -27t26.5 -64q0 -38 -26.5 -64.5t-63.5 -26.5q-38 0 -65 26.5t-27 64.5q0 37 27 64t65 27z" />
<glyph unicode=";" horiz-adv-x="352" d="M122 -154l-25 43q79 39 79 94q0 21 -17 21q-76 0 -76 80q0 41 25 64t65 23q46 0 72.5 -29.5t26.5 -81.5q0 -78 -36.5 -127t-113.5 -87zM267 392q0 -38 -26.5 -64.5t-64.5 -26.5t-64.5 26.5t-26.5 64.5q0 37 27 64t64 27t64 -27t27 -64z" />
<glyph unicode="&#x3c;" horiz-adv-x="475" d="M409 566l29 -58l-228 -157l226 -161l-27 -55l-372 216z" />
<glyph unicode="=" horiz-adv-x="499" d="M462 509v-88h-425v88h425zM462 287v-89h-425v89h425z" />
<glyph unicode="&#x3e;" horiz-adv-x="474" d="M437 351l-372 -216l-27 55l225 161l-226 157l28 58z" />
<glyph unicode="?" horiz-adv-x="607" d="M320 256h-63q-13 28 -13 50q0 37 19 73.5t41.5 62.5t41.5 64t19 76q0 45 -29.5 70.5t-74.5 25.5q-34 0 -57.5 -7t-33.5 -14t-21 -20q22 -2 36.5 -21t14.5 -48q0 -82 -81 -82q-32 0 -53 25t-21 62q0 32 14 63t43 59.5t81.5 46t122.5 17.5q255 0 255 -175q0 -44 -17.5 -79 t-43.5 -56t-57 -43t-57.5 -40t-45 -46.5t-20.5 -63.5zM293 174q37 0 63.5 -27t26.5 -64q0 -38 -26.5 -64.5t-63.5 -26.5q-38 0 -65 27t-27 64t27.5 64t64.5 27z" />
<glyph unicode="@" horiz-adv-x="1013" d="M741 452l-34 -250q-1 -7 -1 -17q0 -47 37 -47q39 0 71 46.5t32 143.5q0 133 -90 208.5t-221 75.5q-144 0 -231 -89t-87 -258q0 -166 90 -252.5t245 -86.5q151 0 254 77l40 -72q-114 -95 -312 -95q-209 0 -333.5 106t-124.5 305q0 214 125 324t336 110q187 0 294.5 -94.5 t107.5 -262.5q0 -103 -56 -172.5t-144 -69.5q-76 0 -103 62q-17 -30 -51.5 -48t-77.5 -18q-71 0 -117 45t-46 132q0 102 54 154.5t140 52.5q71 0 112 -53l24 43h67zM541 407q-37 0 -61 -41.5t-24 -110.5q0 -73 14 -97t58 -24q77 0 77 165q0 61 -14 84.5t-50 23.5z" />
<glyph unicode="A" d="M550 743l212 -631q10 -30 81 -30v-82h-401v82h77q29 0 29 18q0 4 -3 12l-28 80h-270l-25 -72q-3 -8 -3 -13q0 -25 45 -25h57v-82h-283l-1 82q76 0 87 29l224 632h202zM387 606l-111 -326h215z" />
<glyph unicode="B" horiz-adv-x="849" d="M37 743h440q65 0 107.5 -6.5t80 -25.5t55.5 -57t18 -97q0 -128 -143 -158q91 -8 141.5 -53t50.5 -125q0 -123 -66.5 -172t-218.5 -49h-465v82q89 0 89 46v480q0 46 -89 46v89zM458 347h-129v-240h129q117 0 117 123q0 59 -27.5 88t-89.5 29zM432 629h-103v-197h103 q54 0 76 26.5t22 84.5q0 86 -98 86z" />
<glyph unicode="C" horiz-adv-x="786" d="M740 743v-244l-101 -8q-15 79 -62 122t-122 43q-110 0 -159 -72t-49 -213q0 -135 52 -202t136 -67q93 0 145 37.5t78 118.5l91 -23q-65 -251 -331 -251q-80 0 -148.5 23.5t-120.5 69t-82 119.5t-30 168q0 98 29 175t80 124t115.5 71.5t138.5 24.5q144 0 219 -66l23 50h98 z" />
<glyph unicode="D" horiz-adv-x="848" d="M37 743h401q68 0 116 -5.5t92 -19.5t72 -38.5t49 -63.5t30 -94.5t9 -130.5q0 -115 -21 -191t-68.5 -120.5t-113.5 -62t-165 -17.5h-401v82q89 0 89 46v487q0 46 -89 46v82zM454 641h-125v-539h125q85 0 114 64.5t29 221.5q0 151 -28 202t-115 51z" />
<glyph unicode="E" horiz-adv-x="799" d="M729 743v-225l-100 -5q-6 128 -112 128h-188v-209h76q47 0 56 112h88l-15 -312h-86q-10 116 -50 116h-69v-246h152q158 0 170 190l102 -7l-24 -285h-692v82q89 0 89 46v487q0 46 -89 46v82h692z" />
<glyph unicode="F" horiz-adv-x="748" d="M712 743v-225l-84 -5q-11 128 -108 128h-191v-229h82q48 0 57 116h83l-15 -332h-81q-11 120 -51 120h-75v-188q0 -46 112 -46v-82h-404v82q89 0 89 46v487q0 46 -89 46v82h675z" />
<glyph unicode="G" horiz-adv-x="879" d="M740 743v-244l-101 -9q-15 79 -62 122t-122 43q-109 0 -158.5 -71.5t-49.5 -210.5q0 -83 13.5 -138t41.5 -84t62 -40.5t83 -11.5q68 0 116.5 29t48.5 77v48q0 46 -90 46v82h329v-82q-90 0 -90 -46v-253h-124l-21 62q-25 -32 -83.5 -55t-144.5 -23q-55 0 -104.5 12.5 t-95 41.5t-78.5 72.5t-53 110.5t-20 151q0 99 29 175.5t80.5 121.5t115 67.5t138.5 22.5q148 0 220 -67l22 51h98z" />
<glyph unicode="H" horiz-adv-x="921" d="M885 743v-82q-90 0 -90 -46v-487q0 -46 90 -46v-82h-371v82q77 0 77 46v214h-262v-214q0 -46 78 -46v-82h-370v82q89 0 89 46v487q0 46 -89 46v82h370v-82q-78 0 -78 -46v-177h262v177q0 46 -77 46v82h371z" />
<glyph unicode="I" horiz-adv-x="477" d="M429 743v-82q-89 0 -89 -46v-487q0 -46 89 -46v-82h-382v82q90 0 90 46v487q0 46 -90 46v82h382z" />
<glyph unicode="J" horiz-adv-x="697" d="M669 743v-82q-90 0 -90 -46v-370q0 -126 -78.5 -193.5t-212.5 -67.5q-112 0 -182 55t-70 150q0 51 29 81t76 30q42 0 66 -22t24 -60q0 -33 -21 -55.5t-55 -25.5q7 -26 36 -42t65 -16q62 0 90.5 43.5t28.5 153.5v339q0 46 -89 46v82h383z" />
<glyph unicode="K" horiz-adv-x="964" d="M865 743v-82q-76 -2 -134 -49l-143 -117l233 -362q18 -28 37.5 -39.5t52.5 -11.5h22v-82h-413v82h45q35 0 35 24q0 10 -9 27l-146 245l-116 -98v-152q0 -46 89 -46v-82h-381v82q89 0 89 46v487q0 46 -89 46v82h381v-82q-89 0 -89 -46v-214l233 195q16 13 16 32 q0 14 -10.5 23.5t-29.5 9.5h-27v82h354z" />
<glyph unicode="L" horiz-adv-x="772" d="M440 743v-82q-111 0 -111 -46v-513h171q66 0 101.5 44t44.5 146l89 -7l-24 -285h-674v82q89 0 89 46v487q0 46 -89 46v82h403z" />
<glyph unicode="M" horiz-adv-x="1088" d="M1051 743v-82q-90 0 -90 -46v-487q0 -46 90 -46v-82h-373v82q89 0 89 46v477l-186 -605h-163l-186 605v-477q0 -46 89 -46v-82h-284v82q89 0 89 46v487q0 46 -89 46v82h365l151 -518l151 518h347z" />
<glyph unicode="N" horiz-adv-x="903" d="M877 743v-82q-89 0 -89 -46v-615h-242l-313 560v-432q0 -46 89 -46v-82h-285v82q89 0 89 46v487q0 46 -89 46v82h325l320 -574v446q0 46 -89 46v82h284z" />
<glyph unicode="O" horiz-adv-x="832" d="M423 759q85 0 150.5 -20t116.5 -63.5t78 -120t27 -183.5q0 -184 -97 -286t-290 -102q-371 0 -371 372q0 403 386 403zM428 653q-97 0 -143 -60t-46 -191q0 -94 11.5 -156.5t35 -95.5t52.5 -45.5t70 -12.5q101 0 144 62t43 211q0 111 -22 176.5t-56.5 88.5t-88.5 23z" />
<glyph unicode="P" horiz-adv-x="775" d="M37 743h426q141 0 208.5 -46t67.5 -171q0 -128 -70 -184t-206 -56h-134v-158q0 -46 111 -46v-82h-403v82q89 0 89 46v487q0 46 -89 46v82zM416 636h-87v-244h87q72 0 101.5 31t29.5 103q0 54 -30.5 82t-100.5 28z" />
<glyph unicode="Q" horiz-adv-x="849" d="M799 14l30 -51q-12 -32 -48 -54t-79 -22q-110 0 -188 107q-47 -10 -106 -10q-371 0 -371 372q0 403 386 403q85 0 150.5 -20t116.5 -63.5t78 -120t27 -183.5q0 -235 -153 -330q46 -54 101 -54q36 0 56 26zM545 188q50 51 50 177q0 111 -22 176.5t-56.5 88.5t-88.5 23 q-97 0 -143.5 -60.5t-46.5 -190.5q0 -116 20 -185q43 62 119 62q93 0 168 -91zM279 151q40 -70 129 -70q28 0 52 6q-33 55 -59 80.5t-60 25.5q-38 0 -62 -42z" />
<glyph unicode="R" horiz-adv-x="898" d="M872 174v-43q0 -62 -38 -100t-117 -38q-90 0 -133.5 42.5t-43.5 111.5v65q0 78 -20 107t-75 29h-116v-220q0 -46 111 -46v-82h-403v82q89 0 89 46v487q0 46 -89 46v82h475q43 0 77.5 -4t70 -15.5t59 -31.5t38.5 -54.5t15 -80.5q0 -72 -40 -115.5t-100 -56.5 q56 -17 84 -58.5t28 -120.5v-80q0 -43 32 -43q33 0 33 43v48h63zM457 636h-128v-204h128q57 0 82 25t25 86q0 93 -107 93z" />
<glyph unicode="S" horiz-adv-x="734" d="M655 743v-250l-90 -9q-24 169 -232 169q-138 0 -138 -83q0 -43 50.5 -63t149 -36.5t150.5 -34.5q152 -54 152 -212q0 -115 -78.5 -177.5t-206.5 -62.5q-114 0 -200 46q-24 13 -41 13q-26 0 -43 -43h-91v264l90 6q7 -86 74.5 -132.5t179.5 -46.5q73 0 114.5 21.5 t41.5 80.5q0 26 -16.5 43.5t-49 27.5t-65.5 16t-82.5 14t-83.5 17q-105 27 -153 82t-48 155q0 91 63 151t191 60q113 0 195 -42q22 -12 37 -12q19 0 29.5 8.5t23.5 29.5h77z" />
<glyph unicode="T" horiz-adv-x="836" d="M800 743v-306l-87 -3q-5 111 -34.5 159t-89.5 48h-68v-513q0 -46 90 -46v-82h-383v82q89 0 89 46v513h-69q-59 0 -88.5 -47.5t-35.5 -159.5l-87 3v306h763z" />
<glyph unicode="U" horiz-adv-x="887" d="M853 743v-82q-90 0 -90 -46v-312q0 -157 -70 -238t-237 -81q-173 0 -251.5 82.5t-78.5 236.5v312q0 46 -89 46v82h397v-82q-105 0 -105 -46v-312q0 -114 34 -161t126 -47q93 0 131 48t38 160v312q0 46 -106 46v82h301z" />
<glyph unicode="V" d="M842 743l1 -82q-76 0 -87 -29l-224 -632h-202l-212 631q-10 30 -81 30v82h401v-82h-77q-29 0 -29 -17q0 -2 1.5 -6.5t1.5 -6.5l158 -494l165 486q3 8 3 14q0 24 -45 24h-57v82h283z" />
<glyph unicode="W" horiz-adv-x="1204" d="M1167 743v-83q-42 0 -60.5 -12t-25.5 -37l-169 -611h-194l-124 421l-125 -421h-194l-159 610q-6 20 -27.5 35.5t-51.5 15.5v82h357v-82h-57q-27 0 -27 -19l119 -506l135 485q-5 40 -70 40v82h322v-82h-57q-26 0 -26 -19l139 -506l123 487q1 3 1 12q0 26 -39 26h-40v82 h250z" />
<glyph unicode="X" horiz-adv-x="889" d="M836 743v-82q-68 0 -112 -49l-170 -191l202 -289q20 -29 38.5 -40t57.5 -11v-81h-418v81h63q26 0 26 22q0 13 -16 37l-114 167l-127 -163q-16 -21 -16 -35q0 -28 43 -28h49v-81h-305v81q64 0 106 49l207 243l-171 238q-20 27 -39.5 38.5t-54.5 11.5v82h385v-82h-38 q-29 0 -29 -24q0 -11 12 -29l88 -127l97 117q15 18 15 37q0 26 -41 26h-31v82h293z" />
<glyph unicode="Y" horiz-adv-x="826" d="M794 743v-83q-63 0 -81 -28l-207 -304v-201q0 -46 100 -46v-81h-403v81q100 0 100 46v201l-199 303q-20 30 -76 30v82h405v-82h-59q-30 0 -30 -20q0 -8 5 -16l121 -209l130 207q4 7 4 14q0 24 -36 24h-30v82h256z" />
<glyph unicode="Z" horiz-adv-x="735" d="M678 743v-95l-393 -546h151q79 0 116.5 44t49.5 160l91 -7l-25 -299h-640v96l405 545h-157q-71 0 -97 -41.5t-39 -165.5l-87 3v306h625z" />
<glyph unicode="[" horiz-adv-x="381" d="M345 830v-70h-121v-888h121v-75h-236v1033h236z" />
<glyph unicode="\" horiz-adv-x="452" d="M129 744l294 -774h-105l-292 774h103z" />
<glyph unicode="]" horiz-adv-x="388" d="M273 830v-1033h-236v76h121v886h-121v71h236z" />
<glyph unicode="^" horiz-adv-x="403" d="M226 743l140 -280h-76l-86 182l-87 -182h-80l141 280h48z" />
<glyph unicode="_" horiz-adv-x="555" d="M561 -52v-91h-566v91h566z" />
<glyph unicode="`" horiz-adv-x="381" d="M338 623l-18 -42q-36 9 -82 14t-78 8t-61.5 8.5t-44.5 18.5t-15 35q0 24 17 38.5t49 14.5q40 0 118 -42t115 -53z" />
<glyph unicode="a" horiz-adv-x="718" d="M573 346v-233q0 -42 29 -42q13 0 20.5 12t7.5 30v51h58v-32q0 -76 -40 -107.5t-100 -31.5q-107 0 -131 101q-21 -48 -72 -79.5t-128 -31.5q-90 0 -134 37.5t-44 103.5q0 46 18.5 75t57 45.5t77 25t101 21.5t107.5 27v31q0 47 -27 79t-80 32q-77 0 -120 -30q59 -4 59 -53 q0 -31 -21 -49.5t-60 -18.5q-80 0 -80 78q0 59 67 100.5t180 41.5q51 0 93.5 -8.5t80.5 -28.5t59.5 -57t21.5 -89zM401 160v116q-25 -11 -57.5 -23t-50 -18.5t-37.5 -16.5t-29.5 -19.5t-16 -23.5t-6.5 -32q0 -60 75 -60q39 0 72 21.5t50 55.5z" />
<glyph unicode="b" horiz-adv-x="699" d="M271 770v-308q45 67 171 67q102 0 160.5 -60.5t58.5 -206.5q0 -154 -60 -216.5t-167 -62.5q-77 0 -128 33t-61 73l-30 -89h-128v645q0 45 -85 45v80h269zM370 435q-60 0 -87.5 -43t-27.5 -132t27.5 -132t87.5 -43q59 0 85 43t26 132t-26 132t-85 43z" />
<glyph unicode="c" horiz-adv-x="606" d="M483 181l84 -7q-14 -80 -70.5 -135.5t-158.5 -55.5q-137 0 -216 66t-79 202q0 125 74 201.5t210 76.5q105 0 170 -40.5t65 -116.5q0 -37 -21 -60.5t-60 -23.5q-36 0 -56.5 19.5t-20.5 48.5q0 26 18 46t45 21q-28 37 -101 37q-64 0 -103 -50t-39 -139q0 -200 135 -200 q49 0 82.5 27.5t41.5 82.5z" />
<glyph unicode="d" horiz-adv-x="742" d="M617 770v-644q0 -45 87 -45v-81h-235l-7 83q-23 -48 -75.5 -74t-118.5 -26q-103 0 -166 67t-63 206q0 141 69 207t182 66q96 0 144 -45v161q0 45 -85 45v80h268zM339 441q-117 0 -117 -176q0 -175 117 -175q60 0 85 42.5t25 132.5q0 91 -25 133.5t-85 42.5z" />
<glyph unicode="e" horiz-adv-x="626" d="M587 253h-363q5 -182 123 -182q49 0 87.5 26.5t50.5 76.5l84 -9q-16 -77 -75.5 -129.5t-161.5 -52.5q-61 0 -110.5 13.5t-91 43.5t-64.5 84.5t-23 130.5q0 127 74 200.5t207 73.5q134 0 198.5 -67t64.5 -209zM226 322h208q0 56 -25.5 97t-75.5 41q-45 0 -73 -34.5 t-34 -103.5z" />
<glyph unicode="f" horiz-adv-x="523" d="M463 509l-5 -85q-111 11 -151 11v-310q0 -45 131 -45v-80h-398v80q85 0 85 45v310h-86v61q43 9 84 13v77q0 101 55 147.5t165 46.5q199 0 199 -135q0 -36 -23 -59.5t-62 -23.5q-35 0 -54.5 17t-19.5 44q0 24 18 41t46 20q-20 28 -71 28q-70 0 -70 -78v-125h157z" />
<glyph unicode="g" horiz-adv-x="778" d="M176 -17l26 -30q-45 -13 -45 -53q0 -34 45.5 -54t126.5 -20q105 0 148.5 17.5t43.5 56.5q0 24 -11 36.5t-50 23t-119 19.5q-42 5 -69.5 9t-59 10.5t-51 15.5t-36.5 22t-25 31t-8 41q0 55 48 88q-57 41 -57 129q0 184 244 184q113 0 171 -32q41 42 111 42q31 0 60.5 -11 t54 -41.5t24.5 -75.5q0 -37 -19 -57t-51 -20q-33 0 -51.5 17t-18.5 43q0 27 16.5 42.5t46.5 16.5q-7 15 -26 24.5t-41 9.5q-26 0 -60 -25q38 -39 38 -109q0 -101 -67 -141t-188 -40q-95 0 -142 19q-9 -3 -9 -15q0 -11 10 -19t59 -19.5t139 -20.5q161 -16 214 -48.5 t53 -113.5q0 -88 -78.5 -127.5t-245.5 -39.5q-160 0 -224 27t-64 91q0 47 38.5 72t98.5 25zM328 449q-52 0 -74 -27.5t-22 -91.5t23 -92t73 -28q49 0 72 29t23 92t-24 90.5t-71 27.5z" />
<glyph unicode="h" horiz-adv-x="804" d="M307 770v-363q75 112 215 112q158 0 158 -149v-244q0 -45 86 -45v-81h-325v81q56 0 56 45v162q0 121 -62 121q-42 0 -76.5 -33.5t-51.5 -90.5v-159q0 -45 56 -45v-81h-324v81q85 0 85 45v519q0 45 -84 45v80h267z" />
<glyph unicode="i" horiz-adv-x="430" d="M307 509v-383q-1 -23 20 -34t65 -11v-81h-353v81q85 0 85 45v257q0 46 -85 46v80h268zM316 671q0 -42 -29.5 -72t-71.5 -30q-41 0 -71 30t-30 72q0 41 30 70.5t71 29.5q42 0 71.5 -29.5t29.5 -70.5z" />
<glyph unicode="j" horiz-adv-x="464" d="M384 509v-551q0 -194 -212 -194q-196 0 -196 135q0 30 23.5 56.5t61.5 26.5q35 0 54 -16.5t19 -44.5q0 -25 -17 -42t-46 -19q18 -28 66 -28q65 0 65 70v481q0 46 -97 46v80h279zM395 670q0 -42 -30 -71.5t-71 -29.5q-42 0 -71.5 29.5t-29.5 71.5t29.5 71.5t71.5 29.5 q41 0 71 -29.5t30 -71.5z" />
<glyph unicode="k" horiz-adv-x="832" d="M774 509v-80q-96 -2 -164 -48l-53 -36l152 -231q22 -34 84 -34v-80h-351v80h39q27 0 27 19q0 5 -6 15l-89 138l-107 -69v-58q0 -45 80 -45v-80h-347v80q85 0 85 45v520q0 45 -85 45v80h267v-501l172 117q13 9 13 22q0 21 -26 21h-47v80h356z" />
<glyph unicode="l" horiz-adv-x="430" d="M307 770v-644q0 -45 85 -45v-81h-353v81q85 0 85 45v519q0 45 -85 45v80h268z" />
<glyph unicode="m" horiz-adv-x="1130" d="M1010 370v-244q0 -45 81 -45v-81h-317v81q54 0 54 45v158q0 121 -55 121q-37 0 -67.5 -32t-49.5 -91v-156q0 -45 53 -45v-81h-289v81q54 0 54 45v158q0 121 -56 121q-38 0 -68.5 -32t-48.5 -91v-156q0 -45 54 -45v-81h-316v81q80 0 80 45v258q0 45 -79 45v80h261v-103 q69 113 200 113q62 0 103 -29.5t50 -85.5q69 115 201 115q72 0 113.5 -37.5t41.5 -111.5z" />
<glyph unicode="n" horiz-adv-x="809" d="M685 370v-244q0 -45 86 -45v-81h-325v81q57 0 57 45v158q0 121 -65 121q-42 0 -78 -33.5t-53 -89.5v-156q0 -45 56 -45v-81h-324v81q85 0 85 45v258q0 45 -84 45v80h267v-102q75 112 218 112q160 0 160 -149z" />
<glyph unicode="o" horiz-adv-x="645" d="M610 257q0 -133 -75.5 -203.5t-213.5 -70.5q-278 0 -278 262q0 284 288 284q279 0 279 -272zM329 440q-55 0 -80 -39t-25 -128q0 -119 22.5 -160.5t76.5 -41.5q57 0 80.5 41.5t23.5 139.5q0 108 -23.5 148t-74.5 40z" />
<glyph unicode="p" horiz-adv-x="712" d="M244 509l7 -83q24 48 76.5 74t118.5 26q103 0 166 -66.5t63 -205.5q0 -141 -69 -207.5t-182 -66.5q-96 0 -145 46v-137q0 -45 107 -45v-80h-376v80q86 0 86 45v493q0 46 -86 46v81h234zM375 422q-60 0 -85 -42.5t-25 -132.5q0 -91 25 -133.5t85 -42.5q61 0 88.5 43.5 t27.5 132.5q0 88 -27.5 131.5t-88.5 43.5z" />
<glyph unicode="q" horiz-adv-x="706" d="M615 509v-620q0 -45 86 -45v-80h-377v80q107 0 107 45v159q-44 -67 -171 -67q-101 0 -159 60.5t-58 206.5q0 155 59.5 218t166.5 63q76 0 127 -33.5t62 -74.5l29 88h128zM332 425q-59 0 -84 -42.5t-25 -132.5t25 -132.5t84 -42.5q60 0 87.5 43t27.5 132t-27.5 132 t-87.5 43z" />
<glyph unicode="r" horiz-adv-x="638" d="M307 509v-93q51 110 154 110q54 0 96 -33.5t42 -93.5q0 -47 -24.5 -77.5t-65.5 -30.5q-38 0 -59.5 19.5t-21.5 51.5q0 27 16.5 46.5t48.5 20.5q-18 27 -53 27q-40 0 -78.5 -44t-54.5 -110v-176q0 -45 96 -45v-81h-364v81q85 0 85 45v258q0 45 -84 45v80h267z" />
<glyph unicode="s" horiz-adv-x="574" d="M504 509v-175l-81 -7q-24 111 -163 111q-36 0 -57 -12.5t-21 -33.5q0 -24 26 -39.5t65 -22t85 -18t85 -26.5t65 -49t26 -83q0 -77 -55.5 -118.5t-136.5 -41.5q-110 0 -170 32q-20 9 -28 9q-20 0 -24 -35h-81v181q54 4 80 5q11 -52 68.5 -82.5t126.5 -30.5q35 0 55.5 14.5 t20.5 38.5q0 18 -11 30t-34 19t-46 11.5t-59.5 11t-62.5 13.5q-73 20 -105.5 57t-32.5 98q0 70 49 111.5t135 41.5q42 0 80.5 -10.5t63.5 -21.5t33 -11q22 0 29 33h75z" />
<glyph unicode="t" horiz-adv-x="475" d="M308 666v-157h131l-5 -85q-51 11 -126 11v-319q0 -24 8.5 -34.5t29.5 -10.5q37 0 37 45v48h59v-31q0 -140 -148 -140q-169 0 -169 147v295h-86v61q67 5 106.5 34.5t39.5 106.5v22z" />
<glyph unicode="u" horiz-adv-x="784" d="M664 509v-384q0 -45 81 -45v-80h-261v102q-67 -112 -203 -112q-80 0 -118 36.5t-38 112.5v245q0 45 -86 45v80h263v-287q0 -121 65 -121q80 0 117 123v159q0 46 -75 46v80h255z" />
<glyph unicode="v" horiz-adv-x="712" d="M673 509v-80q-62 0 -76 -34l-157 -395h-173l-159 394q-14 35 -69 35v80h318v-80h-45q-27 0 -27 -21q0 -8 3 -14l114 -291l115 283q4 8 4 17q0 26 -39 26h-34v80h225z" />
<glyph unicode="w" horiz-adv-x="1063" d="M1024 509v-80q-58 0 -70 -34l-137 -395h-170l-119 291l-125 -291h-170l-129 394q-12 35 -65 35v80h309v-80h-44q-27 0 -27 -24q0 -3 8 -29l86 -273l124 283q4 8 4 20q0 23 -33 23h-37v80h297v-80h-46q-24 0 -24 -19q0 -6 5 -18l116 -289l99 283q3 9 3 17q0 26 -38 26h-37 v80h220z" />
<glyph unicode="x" horiz-adv-x="734" d="M675 509v-80q-69 0 -105 -34l-119 -113l137 -149q49 -53 108 -53v-80h-348v80h37q22 0 22 14q0 10 -7 18l-78 96l-82 -85q-12 -14 -12 -25q0 -18 35 -18h30v-80h-254v80q64 0 116 49l131 126l-118 131q-39 43 -113 43v80h337v-80h-20q-20 0 -20 -15q0 -8 18 -29l48 -57 l54 57q15 17 15 28q0 16 -24 16h-18v80h230z" />
<glyph unicode="y" horiz-adv-x="686" d="M651 509v-80q-62 0 -75 -34l-173 -426q-18 -43 -30 -69t-30.5 -54.5t-38 -43t-48 -24.5t-64.5 -10q-72 0 -117 36.5t-45 101.5q0 30 22.5 56t59.5 26q35 0 55 -16.5t20 -43.5q0 -26 -17 -42.5t-45 -18.5q10 -17 25 -24.5t48 -7.5q31 0 53 20t48 68l-199 471 q-15 35 -70 35v80h306v-80h-32q-28 0 -28 -21q0 -4 3 -12l107 -281l110 271q3 9 3 17q0 26 -39 26h-20v80h211z" />
<glyph unicode="z" horiz-adv-x="613" d="M566 509v-65l-298 -362h99q69 0 92.5 23t35.5 105l80 -6l-14 -204h-522v65l306 361h-97q-63 0 -81.5 -21t-30.5 -103l-77 3v204h507z" />
<glyph unicode="{" horiz-adv-x="429" d="M392 830v-67q-49 -2 -80 -37.5t-31 -104.5v-169q0 -77 -74 -110q74 -38 74 -112v-228q0 -67 31 -104t80 -40v-62q-228 3 -228 177v252q0 69 -93 80v72q93 7 93 78v197q0 171 228 178z" />
<glyph unicode="|" horiz-adv-x="292" d="M200 804v-920h-105v920h105z" />
<glyph unicode="}" horiz-adv-x="415" d="M265 652v-197q0 -71 93 -78v-72q-93 -11 -93 -80v-252q0 -174 -228 -177v62q49 3 80 40t31 104v228q0 74 74 112q-74 33 -74 110v169q0 69 -31 104.5t-80 37.5v67q228 -7 228 -178z" />
<glyph unicode="~" horiz-adv-x="621" d="M526 455l58 -56q-17 -55 -65 -89.5t-111 -34.5q-47 0 -117 37t-98 37q-50 0 -100 -73l-56 50q16 55 66.5 90t105.5 35q48 0 87.5 -18.5t70 -36.5t58.5 -18q53 0 101 77z" />
<glyph unicode="&#xa1;" horiz-adv-x="406" d="M158 347h84q6 -126 21 -215.5t26.5 -135.5t11.5 -76q0 -92 -104 -92q-101 0 -101 91q0 31 11 77t27 135.5t24 215.5zM291 496q0 -37 -27 -63.5t-65 -26.5q-37 0 -63.5 26.5t-26.5 63.5q0 38 26.5 65t63.5 27q38 0 65 -27t27 -65z" />
<glyph unicode="&#xa2;" horiz-adv-x="627" d="M351 743v-116q93 -5 158.5 -44t65.5 -103q0 -35 -21 -57t-61 -22q-38 0 -58.5 18.5t-20.5 49.5q0 21 15.5 38.5t42.5 21.5q-40 31 -121 34v-369q57 1 95.5 27t46.5 78l86 -7q-13 -71 -70.5 -123t-157.5 -58v-111h-53v111q-126 6 -198.5 68.5t-72.5 185.5q0 115 68 186.5 t203 76.5v115h53zM298 202v351q-46 -15 -73 -58.5t-27 -110.5q0 -150 100 -182z" />
<glyph unicode="&#xa3;" horiz-adv-x="816" d="M570 342v-62h-224q-30 -68 -68 -103q44 -1 87.5 -17t72.5 -35t68 -35t77 -16q25 0 57 12t55 30l24 -48q-75 -84 -217 -84q-38 0 -79 15t-71 33.5t-68 33.5t-72 15q-47 0 -86.5 -27.5t-54.5 -65.5q-11 5 -31.5 15t-26.5 13q30 77 100 110q60 63 88 154h-93v62h108 q12 52 21 86.5t22.5 73.5t28 63.5t36 48.5t47 37t60 21t76.5 8q119 0 176 -51t57 -119q0 -37 -21 -62t-58 -25q-35 0 -57 21.5t-22 52.5q0 27 18 48.5t45 23.5q-33 43 -104 43q-44 0 -70 -14t-38 -42t-18 -58t-16.5 -75.5t-26.5 -80.5h198z" />
<glyph unicode="&#xa4;" horiz-adv-x="784" d="M80 96l67 67q-65 79 -65 186q0 108 68 187l-69 70l60 60l73 -72q81 54 184 54t181 -53l71 71l61 -60l-68 -68q68 -79 68 -189q0 -107 -66 -187l66 -66l-60 -60l-70 69q-80 -51 -183 -51q-107 0 -187 52l-70 -70zM398 582q-105 0 -172.5 -67t-67.5 -166q0 -106 71.5 -170 t168.5 -64q112 0 175 71t63 163q0 105 -71 169t-167 64z" />
<glyph unicode="&#xa5;" horiz-adv-x="821" d="M750 666v-82q-76 0 -95 -36l-145 -193h167v-55h-189v-76h189v-55h-189v-47q0 -42 90 -42v-80h-345v80q90 0 90 42v47h-181v55h181v76h-181v55h149l-143 192q-15 21 -31.5 29.5t-48.5 8.5v81h362v-81h-55q-27 0 -27 -18q0 -7 3 -12l115 -160l112 156q3 5 3 12q0 22 -41 22 h-26v81h236z" />
<glyph unicode="&#xa6;" horiz-adv-x="275" d="M189 802v-373h-105v373h105zM189 264v-380h-105v380h105z" />
<glyph unicode="&#xa7;" horiz-adv-x="607" d="M522 748v-172l-80 -6q-24 108 -160 108q-36 0 -56 -12t-20 -33q0 -28 35.5 -46.5t86.5 -33t102 -34t86.5 -59.5t35.5 -98q0 -46 -25.5 -87.5t-69.5 -70.5q89 -40 89 -135q0 -69 -48 -110t-134 -41q-46 0 -85 10.5t-62 21t-32 10.5q-15 0 -31 -33h-73v174l80 6 q12 -55 57.5 -83t107.5 -28q37 0 58 13.5t21 33.5q0 27 -35.5 44t-86.5 30t-102.5 31.5t-87 59.5t-35.5 103q0 49 26.5 90t69.5 69q-90 41 -90 138q0 68 48 109t133 41q56 0 113 -21t62 -21q14 0 28 32h74zM244 441q-56 -39 -56 -96q0 -16 4.5 -28.5t18 -23.5t24 -17.5 t37.5 -16t41.5 -13.5t52.5 -15q57 44 57 96q0 20 -6.5 33t-24 23t-35 16.5t-52 18.5t-61.5 23z" />
<glyph unicode="&#xa8;" horiz-adv-x="426" d="M400 648q0 -29 -21 -49.5t-50 -20.5t-49.5 20.5t-20.5 49.5t20.5 49.5t49.5 20.5t50 -20.5t21 -49.5zM170 648q0 -29 -21 -49.5t-50 -20.5t-49.5 20.5t-20.5 49.5t20.5 49.5t49.5 20.5t50 -20.5t21 -49.5z" />
<glyph unicode="&#xaa;" horiz-adv-x="458" d="M360 562v-156q0 -24 16 -24q15 0 15 24v38h36v-28q0 -44 -21 -64t-55 -20q-59 0 -72 62q-16 -29 -49.5 -48t-78.5 -19q-57 0 -85 25t-28 69q0 30 13 50.5t39 31.5t51.5 16.5t63.5 13t62 14.5v18q0 32 -17 52.5t-50 20.5q-51 0 -78 -19q32 -7 32 -34q0 -20 -13 -32.5 t-35 -12.5q-48 0 -48 50q0 36 41.5 63.5t109.5 27.5q151 0 151 -119zM267 436v81q-14 -5 -36 -12.5t-31.5 -10.5t-24.5 -9t-21 -10.5t-13 -11.5t-9.5 -15t-2.5 -18q0 -44 53 -44q29 0 52 14.5t33 35.5z" />
<glyph unicode="&#xab;" horiz-adv-x="603" d="M517 498l58 -65l-114 -145l114 -148l-58 -64l-216 212zM242 498l58 -65l-114 -145l114 -148l-58 -64l-215 212z" />
<glyph unicode="&#xac;" horiz-adv-x="601" d="M543 398v-398h-105v312h-388v86h493z" />
<glyph unicode="&#xad;" horiz-adv-x="336" d="M308 332v-91h-281v91h281z" />
<glyph unicode="&#xaf;" horiz-adv-x="426" d="M380 696v-91h-331v91h331z" />
<glyph unicode="&#xb0;" horiz-adv-x="463" d="M323 571q0 37 -26 63.5t-67 26.5q-42 0 -67 -26.5t-25 -63.5q0 -39 26 -65t66 -26t66.5 26t26.5 65zM426 571q0 -75 -56.5 -128t-139.5 -53t-138 53t-55 128q0 74 56 126.5t137 52.5q82 0 139 -52.5t57 -126.5z" />
<glyph unicode="&#xb1;" horiz-adv-x="567" d="M530 398v-87h-203v-198h-89v198h-201v87h201v197h89v-197h203zM530 64v-87h-493v87h493z" />
<glyph unicode="&#xb2;" horiz-adv-x="430" d="M338 490h29q2 -10 2 -29q0 -76 -67 -76q-37 0 -76 17.5t-69 17.5q-34 0 -52 -29h-34q10 50 33.5 85.5t50 53t51.5 33t41.5 37t16.5 53.5q0 28 -16.5 45t-47.5 17q-44 0 -60 -26q26 -2 26 -35q0 -19 -11 -31t-31 -12t-30.5 12.5t-10.5 32.5q0 37 33.5 69t97.5 32 q62 0 103 -27t41 -86q0 -47 -30 -77t-66.5 -41t-74 -28.5t-48.5 -39.5q26 19 62 19q27 0 57 -11.5t44 -11.5q15 0 24 7.5t12 28.5z" />
<glyph unicode="&#xb3;" horiz-adv-x="419" d="M169 570l5 33q76 5 76 61q0 51 -62 51q-41 0 -61 -23q14 -2 22.5 -11.5t8.5 -23.5q0 -19 -11 -31t-31 -12q-19 0 -30.5 12.5t-11.5 32.5q0 37 33.5 67.5t99.5 30.5q59 0 96.5 -22.5t37.5 -67.5q0 -62 -75 -79q89 -16 89 -90q0 -58 -44.5 -87t-114.5 -29q-61 0 -97.5 30 t-36.5 65q0 46 42 46q19 0 31 -12t12 -32q0 -11 -7.5 -20.5t-17.5 -10.5q18 -24 70 -24q71 0 71 65q0 40 -22 58.5t-72 22.5z" />
<glyph unicode="&#xb4;" horiz-adv-x="380" d="M55 581l-18 42q34 10 114 52.5t121 42.5q31 0 48 -14.5t17 -38.5q0 -22 -16 -35.5t-46 -19t-62.5 -8.5t-78 -8t-79.5 -13z" />
<glyph unicode="&#xb5;" horiz-adv-x="784" d="M39 -156q86 0 86 45v495q0 45 -86 45v80h263v-287q0 -121 65 -121q80 0 117 123v159q0 46 -75 46v80h255v-384q0 -45 81 -45v-80h-261v102q-59 -100 -176 -111v-102q0 -45 107 -45v-80h-376v80z" />
<glyph unicode="&#xb6;" horiz-adv-x="613" d="M438 743v-826q0 -42 39 -42q41 0 58 19q-37 7 -37 38q0 16 11 27.5t33 11.5q21 0 31 -13.5t10 -31.5q0 -41 -28.5 -63.5t-81.5 -22.5q-45 0 -72 24.5t-27 66.5v468h-83v-457h-64v457q-90 0 -140.5 52.5t-50.5 123.5q0 68 46.5 118t129.5 50h226zM374 682h-83v-219h83v219 z" />
<glyph unicode="&#xb7;" horiz-adv-x="293" d="M239 373q0 -38 -26.5 -65t-63.5 -27q-38 0 -65 27t-27 65q0 37 27 63.5t65 26.5q37 0 63.5 -26.5t26.5 -63.5z" />
<glyph unicode="&#xb8;" horiz-adv-x="241" d="M116 17v-57q40 -2 65.5 -25t25.5 -59q0 -43 -23.5 -68t-65.5 -25q-27 0 -51.5 14.5t-33.5 37.5l20 23q25 -28 54 -28q39 0 39 46q0 48 -72 56v85h42z" />
<glyph unicode="&#xb9;" horiz-adv-x="276" d="M190 707v-256q0 -21 56 -21v-39h-212v39q65 0 65 21v207h-71l-2 38q75 2 104 64l64 -8q-4 -24 -4 -45z" />
<glyph unicode="&#xba;" horiz-adv-x="442" d="M225 681q169 0 169 -176q0 -85 -46 -132t-130 -47q-76 0 -122.5 39.5t-46.5 131.5q0 90 44 137t132 47zM223 630q-78 0 -78 -115q0 -79 18 -108.5t56 -29.5q42 0 59.5 30.5t17.5 93.5q0 73 -18.5 101t-54.5 28z" />
<glyph unicode="&#xbb;" horiz-adv-x="603" d="M299 287l-215 -212l-57 66l112 146l-112 146l57 65zM574 287l-216 -212l-58 65l114 147l-114 146l58 65z" />
<glyph unicode="&#xbc;" horiz-adv-x="936" d="M227 707v-256q0 -21 56 -21v-39h-212v39q65 0 65 21v207h-71l-2 38q75 2 104 64l64 -8q-4 -24 -4 -45zM785 745l-556 -745h-76l552 745h80zM817 366v-210h48l-7 -51h-41v-45q0 -21 48 -21v-39h-204v39q65 0 65 21v45h-180v38l186 223h85zM726 292l-112 -136h112v136z" />
<glyph unicode="&#xbd;" horiz-adv-x="936" d="M227 707v-256q0 -21 56 -21v-39h-212v39q65 0 65 21v207h-71l-2 38q75 2 104 64l64 -8q-4 -24 -4 -45zM785 745l-556 -745h-76l552 745h80zM831 100h29q2 -10 2 -30q0 -76 -67 -76q-37 0 -75.5 17.5t-68.5 17.5q-35 0 -52 -28h-35q10 50 33.5 85t50 53t51.5 33t41.5 36.5 t16.5 53.5q0 29 -16.5 46t-47.5 17q-43 0 -60 -26q27 -4 27 -36q0 -19 -11 -31t-31 -12t-31 12.5t-11 32.5q0 37 33.5 69.5t97.5 32.5q62 0 103 -27.5t41 -86.5q0 -38 -19 -64t-48 -40t-59 -24.5t-56.5 -24t-35.5 -32.5q26 19 62 19q26 0 56 -12t45 -12q30 0 35 37z" />
<glyph unicode="&#xbe;" horiz-adv-x="936" d="M785 745l-556 -745h-76l552 745h80zM817 366v-210h48l-7 -51h-41v-45q0 -21 48 -21v-39h-204v39q65 0 65 21v45h-180v38l186 223h85zM726 292l-112 -136h112v136zM166 570l5 33q76 5 76 61q0 51 -62 51q-41 0 -61 -23q14 -2 22.5 -11.5t8.5 -23.5q0 -19 -11 -31t-31 -12 q-19 0 -30.5 12.5t-11.5 32.5q0 37 33.5 67.5t99.5 30.5q59 0 96.5 -22.5t37.5 -67.5q0 -62 -75 -79q89 -16 89 -90q0 -58 -44.5 -87t-114.5 -29q-61 0 -97.5 30t-36.5 65q0 46 42 46q19 0 31 -12t12 -32q0 -11 -7.5 -20.5t-17.5 -10.5q18 -24 70 -24q71 0 71 65 q0 40 -22 58.5t-72 22.5z" />
<glyph unicode="&#xbf;" horiz-adv-x="589" d="M277 322h63q13 -27 13 -59q0 -35 -19 -70t-41.5 -60.5t-41.5 -62.5t-19 -74q0 -45 29.5 -70.5t74.5 -25.5q34 0 57.5 7t33.5 14t21 20q-22 2 -36.5 21t-14.5 48q0 82 81 82q32 0 53 -25t21 -62q0 -32 -14 -63t-43 -59.5t-81.5 -46t-122.5 -17.5q-255 0 -255 175 q0 44 17.5 79t43.5 56t57 43t57.5 40t45 46.5t20.5 63.5zM396 495q0 -37 -27.5 -64t-64.5 -27t-63.5 27t-26.5 64q0 38 26.5 64.5t63.5 26.5q38 0 65 -27t27 -64z" />
<glyph unicode="&#xc0;" d="M550 743l212 -631q10 -30 81 -30v-82h-401v82h77q29 0 29 18q0 4 -3 12l-28 80h-270l-25 -72q-3 -8 -3 -13q0 -25 45 -25h57v-82h-283l-1 82q76 0 87 29l224 632h202zM387 606l-111 -326h215zM565 864l-18 -42q-36 9 -82 14t-78 8t-61.5 8.5t-44.5 18.5t-15 35 q0 24 17 38.5t49 14.5q40 0 118 -42t115 -53z" />
<glyph unicode="&#xc1;" d="M550 743l212 -631q10 -30 81 -30v-82h-401v82h77q29 0 29 18q0 4 -3 12l-28 80h-270l-25 -72q-3 -8 -3 -13q0 -25 45 -25h57v-82h-283l-1 82q76 0 87 29l224 632h202zM387 606l-111 -326h215zM321 822l-18 42q34 10 114 52.5t121 42.5q31 0 48 -14.5t17 -38.5 q0 -22 -16 -35.5t-46 -19t-62.5 -8.5t-78 -8t-79.5 -13z" />
<glyph unicode="&#xc2;" d="M550 743l212 -631q10 -30 81 -30v-82h-401v82h77q29 0 29 18q0 4 -3 12l-28 80h-270l-25 -72q-3 -8 -3 -13q0 -25 45 -25h57v-82h-283l-1 82q76 0 87 29l224 632h202zM387 606l-111 -326h215zM621 842l-47 -29l-134 49l-139 -49l-44 30l183 116z" />
<glyph unicode="&#xc3;" d="M550 743l212 -631q10 -30 81 -30v-82h-401v82h77q29 0 29 18q0 4 -3 12l-28 80h-270l-25 -72q-3 -8 -3 -13q0 -25 45 -25h57v-82h-283l-1 82q76 0 87 29l224 632h202zM387 606l-111 -326h215zM607 948l63 -21q-34 -103 -146 -103q-40 0 -95.5 21.5t-82.5 21.5 q-54 0 -78 -41l-60 24q24 49 63.5 75.5t85.5 26.5q51 0 101.5 -21.5t78.5 -21.5q45 0 70 39z" />
<glyph unicode="&#xc4;" d="M550 743l212 -631q10 -30 81 -30v-82h-401v82h77q29 0 29 18q0 4 -3 12l-28 80h-270l-25 -72q-3 -8 -3 -13q0 -25 45 -25h57v-82h-283l-1 82q76 0 87 29l224 632h202zM387 606l-111 -326h215zM625 889q0 -29 -21 -49.5t-50 -20.5t-49.5 20.5t-20.5 49.5t20.5 49.5 t49.5 20.5t50 -20.5t21 -49.5zM395 889q0 -29 -21 -49.5t-50 -20.5t-49.5 20.5t-20.5 49.5t20.5 49.5t49.5 20.5t50 -20.5t21 -49.5z" />
<glyph unicode="&#xc5;" d="M550 743l212 -631q10 -30 81 -30v-82h-401v82h77q29 0 29 18q0 4 -3 12l-28 80h-270l-25 -72q-3 -8 -3 -13q0 -25 45 -25h57v-82h-283l-1 82q76 0 87 29l224 632h202zM387 606l-111 -326h215zM438 913q-25 0 -40.5 -16.5t-15.5 -41.5q0 -28 15 -44t41 -16q24 0 40 16 t16 44q0 25 -16.5 41.5t-39.5 16.5zM542 855q0 -43 -30.5 -74t-73.5 -31q-42 0 -71.5 31t-29.5 74t29.5 73.5t71.5 30.5q43 0 73.5 -30.5t30.5 -73.5z" />
<glyph unicode="&#xc6;" horiz-adv-x="1246" d="M1175 743v-226l-100 -4q-6 128 -112 128h-181v-210h57q31 0 47 23.5t22 89.5h87l-15 -312h-85q-11 116 -51 116h-62v-247h145q159 0 170 191l102 -7l-24 -285h-685v81q89 0 89 46v64h-305l-48 -71q-8 -11 -8 -19q0 -20 37 -20h59v-81h-292v82q70 0 93 34l335 492 q11 17 11 28q0 25 -42 25h-85v82h841zM579 649l-247 -369h247v369z" />
<glyph unicode="&#xc7;" horiz-adv-x="786" d="M740 743v-244l-101 -8q-15 79 -62 122t-122 43q-110 0 -159 -72t-49 -213q0 -135 52 -202t136 -67q93 0 145 37.5t78 118.5l91 -23q-62 -242 -312 -251v-24q40 -2 65.5 -25t25.5 -59q0 -43 -23.5 -68t-65.5 -25q-27 0 -51.5 14.5t-33.5 37.5l20 23q25 -28 54 -28 q38 0 38 46q0 48 -71 56v53q-159 7 -258.5 103.5t-99.5 275.5q0 98 29 175t80 124t115.5 71.5t138.5 24.5q144 0 219 -66l23 50h98z" />
<glyph unicode="&#xc8;" horiz-adv-x="799" d="M729 743v-225l-100 -5q-6 128 -112 128h-188v-209h76q47 0 56 112h88l-15 -312h-86q-10 116 -50 116h-69v-246h152q158 0 170 190l102 -7l-24 -285h-692v82q89 0 89 46v487q0 46 -89 46v82h692zM541 864l-18 -42q-36 9 -82 14t-78 8t-61.5 8.5t-44.5 18.5t-15 35 q0 24 17 38.5t49 14.5q40 0 118 -42t115 -53z" />
<glyph unicode="&#xc9;" horiz-adv-x="799" d="M729 743v-225l-100 -5q-6 128 -112 128h-188v-209h76q47 0 56 112h88l-15 -312h-86q-10 116 -50 116h-69v-246h152q158 0 170 190l102 -7l-24 -285h-692v82q89 0 89 46v487q0 46 -89 46v82h692zM305 822l-18 42q34 10 114 52.5t121 42.5q31 0 48 -14.5t17 -38.5 q0 -22 -16 -35.5t-46 -19t-62.5 -8.5t-78 -8t-79.5 -13z" />
<glyph unicode="&#xca;" horiz-adv-x="799" d="M729 743v-225l-100 -5q-6 128 -112 128h-188v-209h76q47 0 56 112h88l-15 -312h-86q-10 116 -50 116h-69v-246h152q158 0 170 190l102 -7l-24 -285h-692v82q89 0 89 46v487q0 46 -89 46v82h692zM587 842l-47 -29l-134 49l-139 -49l-44 30l183 116z" />
<glyph unicode="&#xcb;" horiz-adv-x="799" d="M729 743v-225l-100 -5q-6 128 -112 128h-188v-209h76q47 0 56 112h88l-15 -312h-86q-10 116 -50 116h-69v-246h152q158 0 170 190l102 -7l-24 -285h-692v82q89 0 89 46v487q0 46 -89 46v82h692zM593 889q0 -29 -21 -49.5t-50 -20.5t-49.5 20.5t-20.5 49.5t20.5 49.5 t49.5 20.5t50 -20.5t21 -49.5zM363 889q0 -29 -21 -49.5t-50 -20.5t-49.5 20.5t-20.5 49.5t20.5 49.5t49.5 20.5t50 -20.5t21 -49.5z" />
<glyph unicode="&#xcc;" horiz-adv-x="477" d="M429 743v-82q-89 0 -89 -46v-487q0 -46 89 -46v-82h-382v82q90 0 90 46v487q0 46 -90 46v82h382zM372 864l-18 -42q-36 9 -82 14t-78 8t-61.5 8.5t-44.5 18.5t-15 35q0 24 17 38.5t49 14.5q40 0 118 -42t115 -53z" />
<glyph unicode="&#xcd;" horiz-adv-x="477" d="M429 743v-82q-89 0 -89 -46v-487q0 -46 89 -46v-82h-382v82q90 0 90 46v487q0 46 -90 46v82h382zM119 822l-18 42q34 10 114 52.5t121 42.5q31 0 48 -14.5t17 -38.5q0 -22 -16 -35.5t-46 -19t-62.5 -8.5t-78 -8t-79.5 -13z" />
<glyph unicode="&#xce;" horiz-adv-x="477" d="M429 743v-82q-89 0 -89 -46v-487q0 -46 89 -46v-82h-382v82q90 0 90 46v487q0 46 -90 46v82h382zM420 842l-47 -29l-134 49l-139 -49l-44 30l183 116z" />
<glyph unicode="&#xcf;" horiz-adv-x="477" d="M429 743v-82q-89 0 -89 -46v-487q0 -46 89 -46v-82h-382v82q90 0 90 46v487q0 46 -90 46v82h382zM424 889q0 -29 -21 -49.5t-50 -20.5t-49.5 20.5t-20.5 49.5t20.5 49.5t49.5 20.5t50 -20.5t21 -49.5zM194 889q0 -29 -21 -49.5t-50 -20.5t-49.5 20.5t-20.5 49.5 t20.5 49.5t49.5 20.5t50 -20.5t21 -49.5z" />
<glyph unicode="&#xd0;" horiz-adv-x="848" d="M37 743h400q81 0 136.5 -8t102.5 -30t73.5 -61t41 -101.5t14.5 -151.5q0 -116 -21 -192t-68.5 -120t-113.5 -61.5t-165 -17.5h-400v81q89 0 89 46v224h-89v77h89v187q0 46 -89 46v82zM453 641h-124v-213h89v-77h-89v-250h124q87 0 115.5 63.5t28.5 223.5q0 151 -28 202 t-116 51z" />
<glyph unicode="&#xd1;" horiz-adv-x="903" d="M877 743v-82q-89 0 -89 -46v-615h-242l-313 560v-432q0 -46 89 -46v-82h-285v82q89 0 89 46v487q0 46 -89 46v82h325l320 -574v446q0 46 -89 46v82h284zM619 948l63 -21q-34 -103 -146 -103q-40 0 -95.5 21.5t-82.5 21.5q-54 0 -78 -41l-60 24q24 49 63.5 75.5t85.5 26.5 q51 0 101.5 -21.5t78.5 -21.5q45 0 70 39z" />
<glyph unicode="&#xd2;" horiz-adv-x="832" d="M423 759q85 0 150.5 -20t116.5 -63.5t78 -120t27 -183.5q0 -184 -97 -286t-290 -102q-371 0 -371 372q0 403 386 403zM428 653q-97 0 -143 -60t-46 -191q0 -94 11.5 -156.5t35 -95.5t52.5 -45.5t70 -12.5q101 0 144 62t43 211q0 111 -22 176.5t-56.5 88.5t-88.5 23z M546 864l-18 -42q-36 9 -82 14t-78 8t-61.5 8.5t-44.5 18.5t-15 35q0 24 17 38.5t49 14.5q40 0 118 -42t115 -53z" />
<glyph unicode="&#xd3;" horiz-adv-x="832" d="M423 759q85 0 150.5 -20t116.5 -63.5t78 -120t27 -183.5q0 -184 -97 -286t-290 -102q-371 0 -371 372q0 403 386 403zM428 653q-97 0 -143 -60t-46 -191q0 -94 11.5 -156.5t35 -95.5t52.5 -45.5t70 -12.5q101 0 144 62t43 211q0 111 -22 176.5t-56.5 88.5t-88.5 23z M299 822l-18 42q34 10 114 52.5t121 42.5q31 0 48 -14.5t17 -38.5q0 -22 -16 -35.5t-46 -19t-62.5 -8.5t-78 -8t-79.5 -13z" />
<glyph unicode="&#xd4;" horiz-adv-x="832" d="M423 759q85 0 150.5 -20t116.5 -63.5t78 -120t27 -183.5q0 -184 -97 -286t-290 -102q-371 0 -371 372q0 403 386 403zM428 653q-97 0 -143 -60t-46 -191q0 -94 11.5 -156.5t35 -95.5t52.5 -45.5t70 -12.5q101 0 144 62t43 211q0 111 -22 176.5t-56.5 88.5t-88.5 23z M597 842l-47 -29l-134 49l-139 -49l-44 30l183 116z" />
<glyph unicode="&#xd5;" horiz-adv-x="832" d="M423 759q85 0 150.5 -20t116.5 -63.5t78 -120t27 -183.5q0 -184 -97 -286t-290 -102q-371 0 -371 372q0 403 386 403zM428 653q-97 0 -143 -60t-46 -191q0 -94 11.5 -156.5t35 -95.5t52.5 -45.5t70 -12.5q101 0 144 62t43 211q0 111 -22 176.5t-56.5 88.5t-88.5 23z M583 948l63 -21q-34 -103 -146 -103q-40 0 -95.5 21.5t-82.5 21.5q-54 0 -78 -41l-60 24q24 49 63.5 75.5t85.5 26.5q51 0 101.5 -21.5t78.5 -21.5q45 0 70 39z" />
<glyph unicode="&#xd6;" horiz-adv-x="832" d="M423 759q85 0 150.5 -20t116.5 -63.5t78 -120t27 -183.5q0 -184 -97 -286t-290 -102q-371 0 -371 372q0 403 386 403zM428 653q-97 0 -143 -60t-46 -191q0 -94 11.5 -156.5t35 -95.5t52.5 -45.5t70 -12.5q101 0 144 62t43 211q0 111 -22 176.5t-56.5 88.5t-88.5 23z M601 889q0 -29 -21 -49.5t-50 -20.5t-49.5 20.5t-20.5 49.5t20.5 49.5t49.5 20.5t50 -20.5t21 -49.5zM371 889q0 -29 -21 -49.5t-50 -20.5t-49.5 20.5t-20.5 49.5t20.5 49.5t49.5 20.5t50 -20.5t21 -49.5z" />
<glyph unicode="&#xd7;" horiz-adv-x="583" d="M496 493l-143 -138l145 -141l-63 -61l-143 140l-144 -140l-62 61l142 141l-142 138l63 62l143 -140l142 140z" />
<glyph unicode="&#xd8;" horiz-adv-x="832" d="M690 759l-32 -59q137 -90 137 -328q0 -184 -97 -286t-290 -102q-78 0 -138 17l-39 -71l-91 44l36 66q-139 89 -139 316q0 403 386 403q82 0 142 -18l35 62zM273 215l233 420q-32 18 -78 18q-97 0 -143 -60t-46 -191q0 -125 34 -187zM562 528l-232 -420q31 -16 78 -16 q101 0 144 62t43 211q0 106 -33 163z" />
<glyph unicode="&#xd9;" horiz-adv-x="887" d="M853 743v-82q-90 0 -90 -46v-312q0 -157 -70 -238t-237 -81q-173 0 -251.5 82.5t-78.5 236.5v312q0 46 -89 46v82h397v-82q-105 0 -105 -46v-312q0 -114 34 -161t126 -47q93 0 131 48t38 160v312q0 46 -106 46v82h301zM585 864l-18 -42q-36 9 -82 14t-78 8t-61.5 8.5 t-44.5 18.5t-15 35q0 24 17 38.5t49 14.5q40 0 118 -42t115 -53z" />
<glyph unicode="&#xda;" horiz-adv-x="887" d="M853 743v-82q-90 0 -90 -46v-312q0 -157 -70 -238t-237 -81q-173 0 -251.5 82.5t-78.5 236.5v312q0 46 -89 46v82h397v-82q-105 0 -105 -46v-312q0 -114 34 -161t126 -47q93 0 131 48t38 160v312q0 46 -106 46v82h301zM352 822l-18 42q34 10 114 52.5t121 42.5 q31 0 48 -14.5t17 -38.5q0 -22 -16 -35.5t-46 -19t-62.5 -8.5t-78 -8t-79.5 -13z" />
<glyph unicode="&#xdb;" horiz-adv-x="887" d="M853 743v-82q-90 0 -90 -46v-312q0 -157 -70 -238t-237 -81q-173 0 -251.5 82.5t-78.5 236.5v312q0 46 -89 46v82h397v-82q-105 0 -105 -46v-312q0 -114 34 -161t126 -47q93 0 131 48t38 160v312q0 46 -106 46v82h301zM651 842l-47 -29l-134 49l-139 -49l-44 30l183 116z " />
<glyph unicode="&#xdc;" horiz-adv-x="887" d="M853 743v-82q-90 0 -90 -46v-312q0 -157 -70 -238t-237 -81q-173 0 -251.5 82.5t-78.5 236.5v312q0 46 -89 46v82h397v-82q-105 0 -105 -46v-312q0 -114 34 -161t126 -47q93 0 131 48t38 160v312q0 46 -106 46v82h301zM650 889q0 -29 -21 -49.5t-50 -20.5t-49.5 20.5 t-20.5 49.5t20.5 49.5t49.5 20.5t50 -20.5t21 -49.5zM420 889q0 -29 -21 -49.5t-50 -20.5t-49.5 20.5t-20.5 49.5t20.5 49.5t49.5 20.5t50 -20.5t21 -49.5z" />
<glyph unicode="&#xdd;" horiz-adv-x="826" d="M794 743v-83q-63 0 -81 -28l-207 -304v-201q0 -46 100 -46v-81h-403v81q100 0 100 46v201l-199 303q-20 30 -76 30v82h405v-82h-59q-30 0 -30 -20q0 -8 5 -16l121 -209l130 207q4 7 4 14q0 24 -36 24h-30v82h256zM320 822l-18 42q34 10 114 52.5t121 42.5q31 0 48 -14.5 t17 -38.5q0 -22 -16 -35.5t-46 -19t-62.5 -8.5t-78 -8t-79.5 -13z" />
<glyph unicode="&#xde;" horiz-adv-x="762" d="M440 743v-82q-61 0 -86 -14t-25 -44v-37h85q59 0 100 -3t85 -13.5t70 -30t43 -53.5t17 -83q0 -41 -9 -73t-22.5 -53.5t-38 -37t-48 -24t-59.5 -13t-65 -5.5t-73 -1h-85v-49q0 -46 111 -46v-81h-403v81q89 0 89 46v488q0 46 -89 46v82h403zM422 459h-93v-176h93 q53 0 83.5 26t30.5 67q0 44 -26 63.5t-88 19.5z" />
<glyph unicode="&#xdf;" horiz-adv-x="758" d="M305 606v-606h-279v81q88 0 88 45v452q0 202 254 202q257 0 257 -167q0 -125 -121 -158q202 -24 202 -247q0 -113 -49.5 -169t-156.5 -56q-133 0 -150 123l57 20q12 -54 55 -54q29 0 41 30t12 97q0 115 -31 160.5t-108 45.5v80q35 2 50.5 28.5t15.5 96.5q0 45 -14 66 t-53 21q-70 0 -70 -91z" />
<glyph unicode="&#xe0;" horiz-adv-x="718" d="M573 346v-233q0 -42 29 -42q13 0 20.5 12t7.5 30v51h58v-32q0 -76 -40 -107.5t-100 -31.5q-107 0 -131 101q-21 -48 -72 -79.5t-128 -31.5q-90 0 -134 37.5t-44 103.5q0 46 18.5 75t57 45.5t77 25t101 21.5t107.5 27v31q0 47 -27 79t-80 32q-77 0 -120 -30q59 -4 59 -53 q0 -31 -21 -49.5t-60 -18.5q-80 0 -80 78q0 59 67 100.5t180 41.5q51 0 93.5 -8.5t80.5 -28.5t59.5 -57t21.5 -89zM401 160v116q-25 -11 -57.5 -23t-50 -18.5t-37.5 -16.5t-29.5 -19.5t-16 -23.5t-6.5 -32q0 -60 75 -60q39 0 72 21.5t50 55.5zM467 623l-18 -42q-36 9 -82 14 t-78 8t-61.5 8.5t-44.5 18.5t-15 35q0 24 17 38.5t49 14.5q40 0 118 -42t115 -53z" />
<glyph unicode="&#xe1;" horiz-adv-x="718" d="M573 346v-233q0 -42 29 -42q13 0 20.5 12t7.5 30v51h58v-32q0 -76 -40 -107.5t-100 -31.5q-107 0 -131 101q-21 -48 -72 -79.5t-128 -31.5q-90 0 -134 37.5t-44 103.5q0 46 18.5 75t57 45.5t77 25t101 21.5t107.5 27v31q0 47 -27 79t-80 32q-77 0 -120 -30q59 -4 59 -53 q0 -31 -21 -49.5t-60 -18.5q-80 0 -80 78q0 59 67 100.5t180 41.5q51 0 93.5 -8.5t80.5 -28.5t59.5 -57t21.5 -89zM401 160v116q-25 -11 -57.5 -23t-50 -18.5t-37.5 -16.5t-29.5 -19.5t-16 -23.5t-6.5 -32q0 -60 75 -60q39 0 72 21.5t50 55.5zM239 581l-18 42 q34 10 114 52.5t121 42.5q31 0 48 -14.5t17 -38.5q0 -22 -16 -35.5t-46 -19t-62.5 -8.5t-78 -8t-79.5 -13z" />
<glyph unicode="&#xe2;" horiz-adv-x="718" d="M573 346v-233q0 -42 29 -42q13 0 20.5 12t7.5 30v51h58v-32q0 -76 -40 -107.5t-100 -31.5q-107 0 -131 101q-21 -48 -72 -79.5t-128 -31.5q-90 0 -134 37.5t-44 103.5q0 46 18.5 75t57 45.5t77 25t101 21.5t107.5 27v31q0 47 -27 79t-80 32q-77 0 -120 -30q59 -4 59 -53 q0 -31 -21 -49.5t-60 -18.5q-80 0 -80 78q0 59 67 100.5t180 41.5q51 0 93.5 -8.5t80.5 -28.5t59.5 -57t21.5 -89zM401 160v116q-25 -11 -57.5 -23t-50 -18.5t-37.5 -16.5t-29.5 -19.5t-16 -23.5t-6.5 -32q0 -60 75 -60q39 0 72 21.5t50 55.5zM520 601l-47 -29l-134 49 l-139 -49l-44 30l183 116z" />
<glyph unicode="&#xe3;" horiz-adv-x="718" d="M573 346v-233q0 -42 29 -42q13 0 20.5 12t7.5 30v51h58v-32q0 -76 -40 -107.5t-100 -31.5q-107 0 -131 101q-21 -48 -72 -79.5t-128 -31.5q-90 0 -134 37.5t-44 103.5q0 46 18.5 75t57 45.5t77 25t101 21.5t107.5 27v31q0 47 -27 79t-80 32q-77 0 -120 -30q59 -4 59 -53 q0 -31 -21 -49.5t-60 -18.5q-80 0 -80 78q0 59 67 100.5t180 41.5q51 0 93.5 -8.5t80.5 -28.5t59.5 -57t21.5 -89zM401 160v116q-25 -11 -57.5 -23t-50 -18.5t-37.5 -16.5t-29.5 -19.5t-16 -23.5t-6.5 -32q0 -60 75 -60q39 0 72 21.5t50 55.5zM505 707l63 -21 q-34 -103 -146 -103q-40 0 -95.5 21.5t-82.5 21.5q-54 0 -78 -41l-60 24q24 49 63.5 75.5t85.5 26.5q51 0 101.5 -21.5t78.5 -21.5q45 0 70 39z" />
<glyph unicode="&#xe4;" horiz-adv-x="718" d="M573 346v-233q0 -42 29 -42q13 0 20.5 12t7.5 30v51h58v-32q0 -76 -40 -107.5t-100 -31.5q-107 0 -131 101q-21 -48 -72 -79.5t-128 -31.5q-90 0 -134 37.5t-44 103.5q0 46 18.5 75t57 45.5t77 25t101 21.5t107.5 27v31q0 47 -27 79t-80 32q-77 0 -120 -30q59 -4 59 -53 q0 -31 -21 -49.5t-60 -18.5q-80 0 -80 78q0 59 67 100.5t180 41.5q51 0 93.5 -8.5t80.5 -28.5t59.5 -57t21.5 -89zM401 160v116q-25 -11 -57.5 -23t-50 -18.5t-37.5 -16.5t-29.5 -19.5t-16 -23.5t-6.5 -32q0 -60 75 -60q39 0 72 21.5t50 55.5zM521 648q0 -29 -21 -49.5 t-50 -20.5t-49.5 20.5t-20.5 49.5t20.5 49.5t49.5 20.5t50 -20.5t21 -49.5zM291 648q0 -29 -21 -49.5t-50 -20.5t-49.5 20.5t-20.5 49.5t20.5 49.5t49.5 20.5t50 -20.5t21 -49.5z" />
<glyph unicode="&#xe5;" horiz-adv-x="718" d="M573 346v-233q0 -42 29 -42q13 0 20.5 12t7.5 30v51h58v-32q0 -76 -40 -107.5t-100 -31.5q-107 0 -131 101q-21 -48 -72 -79.5t-128 -31.5q-90 0 -134 37.5t-44 103.5q0 46 18.5 75t57 45.5t77 25t101 21.5t107.5 27v31q0 47 -27 79t-80 32q-77 0 -120 -30q59 -4 59 -53 q0 -31 -21 -49.5t-60 -18.5q-80 0 -80 78q0 59 67 100.5t180 41.5q51 0 93.5 -8.5t80.5 -28.5t59.5 -57t21.5 -89zM401 160v116q-25 -11 -57.5 -23t-50 -18.5t-37.5 -16.5t-29.5 -19.5t-16 -23.5t-6.5 -32q0 -60 75 -60q39 0 72 21.5t50 55.5zM336 708q-25 0 -40.5 -16.5 t-15.5 -41.5q0 -28 15 -44t41 -16q24 0 40 16t16 44q0 25 -16.5 41.5t-39.5 16.5zM440 650q0 -43 -30.5 -74t-73.5 -31q-42 0 -71.5 31t-29.5 74t29.5 73.5t71.5 30.5q43 0 73.5 -30.5t30.5 -73.5z" />
<glyph unicode="&#xe6;" horiz-adv-x="977" d="M938 252h-363q2 -92 31.5 -136.5t91.5 -44.5q49 0 87 26.5t51 76.5l84 -10q-17 -77 -76.5 -129t-160.5 -52q-186 0 -234 144q-61 -144 -232 -144q-90 0 -134 37.5t-44 103.5q0 38 14.5 65t37 42t59.5 27t72.5 18.5t86.5 17.5t91 24v31q0 47 -27 79t-80 32q-79 0 -120 -30 q59 -6 59 -53q0 -32 -20.5 -50t-60.5 -18q-80 0 -80 78q0 59 67 100.5t180 41.5q116 0 181 -76q68 76 192 76q247 0 247 -277zM577 322h208q0 56 -25.5 96.5t-75.5 40.5q-46 0 -74 -34t-33 -103zM401 160v116q-27 -11 -67 -26.5t-57.5 -23t-38 -20t-27.5 -27.5t-7 -36 q0 -60 75 -60q40 0 72.5 21t49.5 56z" />
<glyph unicode="&#xe7;" horiz-adv-x="606" d="M483 181l84 -7q-14 -78 -68.5 -133t-153.5 -58v-24q40 -2 66.5 -25t26.5 -60q0 -44 -24 -69.5t-67 -25.5q-28 0 -52.5 15t-33.5 39l21 23q25 -29 54 -29q40 0 40 47t-73 57v54q-122 8 -191 73.5t-69 192.5q0 125 74 201.5t210 76.5q105 0 170 -40.5t65 -116.5 q0 -37 -21 -60.5t-60 -23.5q-36 0 -56.5 19.5t-20.5 48.5q0 26 18 46t45 21q-28 37 -101 37q-64 0 -103 -50t-39 -139q0 -200 135 -200q49 0 82.5 27.5t41.5 82.5z" />
<glyph unicode="&#xe8;" horiz-adv-x="625" d="M587 253h-363q5 -182 123 -182q49 0 87.5 26.5t50.5 76.5l84 -9q-16 -77 -75.5 -129.5t-161.5 -52.5q-61 0 -110.5 13.5t-91 43.5t-64.5 84.5t-23 130.5q0 127 74 200.5t207 73.5q134 0 198.5 -67t64.5 -209zM226 322h208q0 56 -25.5 97t-75.5 41q-45 0 -73 -34.5 t-34 -103.5zM432 623l-18 -42q-36 9 -82 14t-78 8t-61.5 8.5t-44.5 18.5t-15 35q0 24 17 38.5t49 14.5q40 0 118 -42t115 -53z" />
<glyph unicode="&#xe9;" horiz-adv-x="625" d="M587 253h-363q5 -182 123 -182q49 0 87.5 26.5t50.5 76.5l84 -9q-16 -77 -75.5 -129.5t-161.5 -52.5q-61 0 -110.5 13.5t-91 43.5t-64.5 84.5t-23 130.5q0 127 74 200.5t207 73.5q134 0 198.5 -67t64.5 -209zM226 322h208q0 56 -25.5 97t-75.5 41q-45 0 -73 -34.5 t-34 -103.5zM210 581l-18 42q34 10 114 52.5t121 42.5q31 0 48 -14.5t17 -38.5q0 -22 -16 -35.5t-46 -19t-62.5 -8.5t-78 -8t-79.5 -13z" />
<glyph unicode="&#xea;" horiz-adv-x="625" d="M587 253h-363q5 -182 123 -182q49 0 87.5 26.5t50.5 76.5l84 -9q-16 -77 -75.5 -129.5t-161.5 -52.5q-61 0 -110.5 13.5t-91 43.5t-64.5 84.5t-23 130.5q0 127 74 200.5t207 73.5q134 0 198.5 -67t64.5 -209zM226 322h208q0 56 -25.5 97t-75.5 41q-45 0 -73 -34.5 t-34 -103.5zM490 601l-47 -29l-134 49l-139 -49l-44 30l183 116z" />
<glyph unicode="&#xeb;" horiz-adv-x="625" d="M587 253h-363q5 -182 123 -182q49 0 87.5 26.5t50.5 76.5l84 -9q-16 -77 -75.5 -129.5t-161.5 -52.5q-61 0 -110.5 13.5t-91 43.5t-64.5 84.5t-23 130.5q0 127 74 200.5t207 73.5q134 0 198.5 -67t64.5 -209zM226 322h208q0 56 -25.5 97t-75.5 41q-45 0 -73 -34.5 t-34 -103.5zM505 648q0 -29 -21 -49.5t-50 -20.5t-49.5 20.5t-20.5 49.5t20.5 49.5t49.5 20.5t50 -20.5t21 -49.5zM275 648q0 -29 -21 -49.5t-50 -20.5t-49.5 20.5t-20.5 49.5t20.5 49.5t49.5 20.5t50 -20.5t21 -49.5z" />
<glyph unicode="&#xec;" horiz-adv-x="430" d="M320 623l-18 -42q-36 9 -82 14t-78 8t-61.5 8.5t-44.5 18.5t-15 35q0 24 17 38.5t49 14.5q40 0 118 -42t115 -53zM307 509v-383q0 -45 85 -45v-81h-353v81q85 0 85 45v257q0 46 -85 46v80h268z" />
<glyph unicode="&#xed;" horiz-adv-x="430" d="M85 581l-18 42q34 10 114 52.5t121 42.5q31 0 48 -14.5t17 -38.5q0 -22 -16 -35.5t-46 -19t-62.5 -8.5t-78 -8t-79.5 -13zM307 509v-383q0 -45 85 -45v-81h-353v81q85 0 85 45v257q0 46 -85 46v80h268z" />
<glyph unicode="&#xee;" horiz-adv-x="430" d="M307 509v-383q0 -45 85 -45v-81h-353v81q85 0 85 45v257q0 46 -85 46v80h268zM386 601l-47 -29l-134 49l-139 -49l-44 30l183 116z" />
<glyph unicode="&#xef;" horiz-adv-x="430" d="M387 648q0 -29 -21 -49.5t-50 -20.5t-49.5 20.5t-20.5 49.5t20.5 49.5t49.5 20.5t50 -20.5t21 -49.5zM157 648q0 -29 -21 -49.5t-50 -20.5t-49.5 20.5t-20.5 49.5t20.5 49.5t49.5 20.5t50 -20.5t21 -49.5zM307 509v-383q0 -45 85 -45v-81h-353v81q85 0 85 45v257 q0 46 -85 46v80h268z" />
<glyph unicode="&#xf0;" horiz-adv-x="645" d="M500 770l35 -50l-76 -60q151 -157 151 -381q0 -157 -73 -226.5t-216 -69.5q-123 0 -200.5 58t-77.5 182q0 127 61 189t174 62q63 0 134 -20q-11 74 -46 137l-84 -67l-35 50l87 69q-37 44 -83 58l28 68q73 -21 133 -68zM329 401q-56 0 -80.5 -32.5t-24.5 -117.5 q0 -77 11.5 -116.5t31 -51.5t56.5 -12q59 0 81.5 33.5t22.5 125.5q0 97 -20.5 134t-77.5 37z" />
<glyph unicode="&#xf1;" horiz-adv-x="809" d="M685 370v-244q0 -45 86 -45v-81h-325v81q57 0 57 45v158q0 121 -65 121q-42 0 -78 -33.5t-53 -89.5v-156q0 -45 56 -45v-81h-324v81q85 0 85 45v258q0 45 -84 45v80h267v-102q75 112 218 112q160 0 160 -149zM568 707l63 -21q-34 -103 -146 -103q-40 0 -95.5 21.5 t-82.5 21.5q-54 0 -78 -41l-60 24q24 49 63.5 75.5t85.5 26.5q51 0 101.5 -21.5t78.5 -21.5q45 0 70 39z" />
<glyph unicode="&#xf2;" horiz-adv-x="645" d="M610 257q0 -133 -75.5 -203.5t-213.5 -70.5q-278 0 -278 262q0 284 288 284q279 0 279 -272zM329 440q-55 0 -80 -39t-25 -128q0 -119 22.5 -160.5t76.5 -41.5q57 0 80.5 41.5t23.5 139.5q0 108 -23.5 148t-74.5 40zM454 623l-18 -42q-36 9 -82 14t-78 8t-61.5 8.5 t-44.5 18.5t-15 35q0 24 17 38.5t49 14.5q40 0 118 -42t115 -53z" />
<glyph unicode="&#xf3;" horiz-adv-x="645" d="M610 257q0 -133 -75.5 -203.5t-213.5 -70.5q-278 0 -278 262q0 284 288 284q279 0 279 -272zM329 440q-55 0 -80 -39t-25 -128q0 -119 22.5 -160.5t76.5 -41.5q57 0 80.5 41.5t23.5 139.5q0 108 -23.5 148t-74.5 40zM209 581l-18 42q34 10 114 52.5t121 42.5 q31 0 48 -14.5t17 -38.5q0 -22 -16 -35.5t-46 -19t-62.5 -8.5t-78 -8t-79.5 -13z" />
<glyph unicode="&#xf4;" horiz-adv-x="645" d="M610 257q0 -133 -75.5 -203.5t-213.5 -70.5q-278 0 -278 262q0 284 288 284q279 0 279 -272zM329 440q-55 0 -80 -39t-25 -128q0 -119 22.5 -160.5t76.5 -41.5q57 0 80.5 41.5t23.5 139.5q0 108 -23.5 148t-74.5 40zM501 601l-47 -29l-134 49l-139 -49l-44 30l183 116z " />
<glyph unicode="&#xf5;" horiz-adv-x="645" d="M610 257q0 -133 -75.5 -203.5t-213.5 -70.5q-278 0 -278 262q0 284 288 284q279 0 279 -272zM329 440q-55 0 -80 -39t-25 -128q0 -119 22.5 -160.5t76.5 -41.5q57 0 80.5 41.5t23.5 139.5q0 108 -23.5 148t-74.5 40zM486 707l63 -21q-34 -103 -146 -103q-40 0 -95.5 21.5 t-82.5 21.5q-54 0 -78 -41l-60 24q24 49 63.5 75.5t85.5 26.5q51 0 101.5 -21.5t78.5 -21.5q45 0 70 39z" />
<glyph unicode="&#xf6;" horiz-adv-x="645" d="M610 257q0 -133 -75.5 -203.5t-213.5 -70.5q-278 0 -278 262q0 284 288 284q279 0 279 -272zM329 440q-55 0 -80 -39t-25 -128q0 -119 22.5 -160.5t76.5 -41.5q57 0 80.5 41.5t23.5 139.5q0 108 -23.5 148t-74.5 40zM504 648q0 -29 -21 -49.5t-50 -20.5t-49.5 20.5 t-20.5 49.5t20.5 49.5t49.5 20.5t50 -20.5t21 -49.5zM274 648q0 -29 -21 -49.5t-50 -20.5t-49.5 20.5t-20.5 49.5t20.5 49.5t49.5 20.5t50 -20.5t21 -49.5z" />
<glyph unicode="&#xf7;" horiz-adv-x="567" d="M530 398v-86h-493v86h493zM352 542q0 -28 -19.5 -47.5t-47.5 -19.5t-47.5 19.5t-19.5 47.5t19.5 47.5t47.5 19.5t47.5 -19.5t19.5 -47.5zM352 164q0 -28 -19.5 -47.5t-47.5 -19.5t-47.5 19.5t-19.5 47.5t19.5 47.5t47.5 19.5t47.5 -19.5t19.5 -47.5z" />
<glyph unicode="&#xf8;" horiz-adv-x="645" d="M534 551l-34 -60q110 -62 110 -234q0 -133 -75.5 -203.5t-213.5 -70.5q-54 0 -97 10l-35 -64l-77 37l32 58q-101 63 -101 221q0 284 288 284q49 0 88 -10l39 69zM235 177l142 255q-19 11 -48 11q-111 0 -111 -170q0 -77 17 -96zM419 356l-151 -272q20 -16 55 -16 q58 0 84 43.5t26 140.5q0 65 -14 104z" />
<glyph unicode="&#xf9;" horiz-adv-x="784" d="M664 509v-384q0 -45 81 -45v-80h-261v102q-67 -112 -203 -112q-80 0 -118 36.5t-38 112.5v245q0 45 -86 45v80h263v-287q0 -121 65 -121q80 0 117 123v159q0 46 -75 46v80h255zM509 623l-18 -42q-36 9 -82 14t-78 8t-61.5 8.5t-44.5 18.5t-15 35q0 24 17 38.5t49 14.5 q40 0 118 -42t115 -53z" />
<glyph unicode="&#xfa;" horiz-adv-x="784" d="M664 509v-384q0 -45 81 -45v-80h-261v102q-67 -112 -203 -112q-80 0 -118 36.5t-38 112.5v245q0 45 -86 45v80h263v-287q0 -121 65 -121q80 0 117 123v159q0 46 -75 46v80h255zM268 581l-18 42q34 10 114 52.5t121 42.5q31 0 48 -14.5t17 -38.5q0 -22 -16 -35.5t-46 -19 t-62.5 -8.5t-78 -8t-79.5 -13z" />
<glyph unicode="&#xfb;" horiz-adv-x="784" d="M664 509v-384q0 -45 81 -45v-80h-261v102q-67 -112 -203 -112q-80 0 -118 36.5t-38 112.5v245q0 45 -86 45v80h263v-287q0 -121 65 -121q80 0 117 123v159q0 46 -75 46v80h255zM564 601l-47 -29l-134 49l-139 -49l-44 30l183 116z" />
<glyph unicode="&#xfc;" horiz-adv-x="784" d="M664 509v-384q0 -45 81 -45v-80h-261v102q-67 -112 -203 -112q-80 0 -118 36.5t-38 112.5v245q0 45 -86 45v80h263v-287q0 -121 65 -121q80 0 117 123v159q0 46 -75 46v80h255zM565 648q0 -29 -21 -49.5t-50 -20.5t-49.5 20.5t-20.5 49.5t20.5 49.5t49.5 20.5t50 -20.5 t21 -49.5zM335 648q0 -29 -21 -49.5t-50 -20.5t-49.5 20.5t-20.5 49.5t20.5 49.5t49.5 20.5t50 -20.5t21 -49.5z" />
<glyph unicode="&#xfd;" horiz-adv-x="686" d="M651 509v-80q-62 0 -75 -34l-173 -426q-18 -43 -30 -69t-30.5 -54.5t-38 -43t-48 -24.5t-64.5 -10q-72 0 -117 36.5t-45 101.5q0 30 22.5 56t59.5 26q35 0 55 -16.5t20 -43.5q0 -26 -17 -42.5t-45 -18.5q10 -17 25 -24.5t48 -7.5q31 0 53 20t48 68l-199 471 q-15 35 -70 35v80h306v-80h-32q-28 0 -28 -21q0 -4 3 -12l107 -281l110 271q3 9 3 17q0 26 -39 26h-20v80h211zM245 581l-18 42q34 10 114 52.5t121 42.5q31 0 48 -14.5t17 -38.5q0 -22 -16 -35.5t-46 -19t-62.5 -8.5t-78 -8t-79.5 -13z" />
<glyph unicode="&#xfe;" horiz-adv-x="696" d="M272 770v-308q45 67 171 67q102 0 161 -60.5t59 -208.5q0 -129 -63.5 -204.5t-184.5 -75.5q-95 0 -144 46v-137q0 -45 107 -45v-80h-376v80q86 0 86 45v756q0 45 -85 45v80h269zM371 435q-59 0 -86.5 -41.5t-27.5 -126.5q0 -198 109 -198q116 0 116 191q0 90 -25.5 132.5 t-85.5 42.5z" />
<glyph unicode="&#xff;" horiz-adv-x="686" d="M651 509v-80q-62 0 -75 -34l-173 -426q-18 -43 -30 -69t-30.5 -54.5t-38 -43t-48 -24.5t-64.5 -10q-72 0 -117 36.5t-45 101.5q0 30 22.5 56t59.5 26q35 0 55 -16.5t20 -43.5q0 -26 -17 -42.5t-45 -18.5q10 -17 25 -24.5t48 -7.5q31 0 53 20t48 68l-199 471 q-15 35 -70 35v80h306v-80h-32q-28 0 -28 -21q0 -4 3 -12l107 -281l110 271q3 9 3 17q0 26 -39 26h-20v80h211zM554 648q0 -29 -21 -49.5t-50 -20.5t-49.5 20.5t-20.5 49.5t20.5 49.5t49.5 20.5t50 -20.5t21 -49.5zM324 648q0 -29 -21 -49.5t-50 -20.5t-49.5 20.5 t-20.5 49.5t20.5 49.5t49.5 20.5t50 -20.5t21 -49.5z" />
<glyph unicode="&#x152;" horiz-adv-x="1238" d="M1168 743v-225l-100 -5q-6 128 -112 128h-184v-209h72q47 0 56 112h88l-15 -312h-86q-10 116 -50 116h-65v-246h148q158 0 170 190l102 -7l-24 -285h-521q-47 0 -117.5 -8t-121.5 -8q-371 0 -371 372q0 403 386 403q41 0 108 -8t116 -8h521zM428 653q-97 0 -143 -60 t-46 -191q0 -124 22 -194t56.5 -93t90.5 -23q69 0 103.5 19.5t51 78t16.5 175.5q0 121 -15.5 183.5t-46 83.5t-89.5 21z" />
<glyph unicode="&#x153;" horiz-adv-x="1010" d="M971 253h-363q3 -182 123 -182q48 0 86.5 26.5t50.5 76.5l85 -9q-17 -78 -76.5 -130t-160.5 -52q-134 0 -199 66q-69 -66 -196 -66q-278 0 -278 262q0 284 288 284q128 0 192 -64q67 64 185 64q134 0 198.5 -67t64.5 -209zM329 440q-55 0 -80 -39t-25 -128 q0 -119 22.5 -160.5t76.5 -41.5q57 0 80.5 41.5t23.5 139.5q0 108 -23.5 148t-74.5 40zM609 322h209q0 56 -26 97t-76 41q-45 0 -73 -34.5t-34 -103.5z" />
<glyph unicode="&#x178;" horiz-adv-x="826" d="M794 743v-83q-63 0 -81 -28l-207 -304v-201q0 -46 100 -46v-81h-403v81q100 0 100 46v201l-199 303q-20 30 -76 30v82h405v-82h-59q-30 0 -30 -20q0 -8 5 -16l121 -209l130 207q4 7 4 14q0 24 -36 24h-30v82h256zM624 889q0 -29 -21 -49.5t-50 -20.5t-49.5 20.5 t-20.5 49.5t20.5 49.5t49.5 20.5t50 -20.5t21 -49.5zM394 889q0 -29 -21 -49.5t-50 -20.5t-49.5 20.5t-20.5 49.5t20.5 49.5t49.5 20.5t50 -20.5t21 -49.5z" />
<glyph unicode="&#x2c6;" horiz-adv-x="436" d="M400 601l-47 -29l-134 49l-139 -49l-44 30l183 116z" />
<glyph unicode="&#x2dc;" horiz-adv-x="536" d="M436 707l63 -21q-34 -103 -146 -103q-40 0 -95.5 21.5t-82.5 21.5q-54 0 -78 -41l-60 24q24 49 63.5 75.5t85.5 26.5q51 0 101.5 -21.5t78.5 -21.5q45 0 70 39z" />
<glyph unicode="&#x2000;" horiz-adv-x="479" />
<glyph unicode="&#x2001;" horiz-adv-x="959" />
<glyph unicode="&#x2002;" horiz-adv-x="479" />
<glyph unicode="&#x2003;" horiz-adv-x="959" />
<glyph unicode="&#x2004;" horiz-adv-x="319" />
<glyph unicode="&#x2005;" horiz-adv-x="239" />
<glyph unicode="&#x2006;" horiz-adv-x="159" />
<glyph unicode="&#x2007;" horiz-adv-x="159" />
<glyph unicode="&#x2008;" horiz-adv-x="119" />
<glyph unicode="&#x2009;" horiz-adv-x="191" />
<glyph unicode="&#x200a;" horiz-adv-x="53" />
<glyph unicode="&#x2010;" horiz-adv-x="336" d="M308 332v-91h-281v91h281z" />
<glyph unicode="&#x2011;" horiz-adv-x="336" d="M308 332v-91h-281v91h281z" />
<glyph unicode="&#x2012;" horiz-adv-x="336" d="M308 332v-91h-281v91h281z" />
<glyph unicode="&#x2013;" horiz-adv-x="595" d="M567 332v-91h-540v91h540z" />
<glyph unicode="&#x2014;" horiz-adv-x="1006" d="M978 332v-91h-951v91h951z" />
<glyph unicode="&#x2018;" horiz-adv-x="265" d="M187 784l25 -43q-80 -40 -80 -94q0 -21 18 -21q76 0 76 -80q0 -41 -25 -64t-65 -23q-46 0 -72.5 29.5t-26.5 81.5q0 78 36.5 127t113.5 87z" />
<glyph unicode="&#x2019;" horiz-adv-x="265" d="M79 449l-25 43q79 40 79 94q0 21 -17 21q-76 0 -76 80q0 41 24.5 64t64.5 23q47 0 73.5 -29.5t26.5 -81.5q0 -78 -36.5 -127t-113.5 -87z" />
<glyph unicode="&#x201a;" horiz-adv-x="265" d="M79 -154l-25 43q79 39 79 94q0 21 -17 21q-76 0 -76 80q0 41 24.5 64t64.5 23q47 0 73.5 -29.5t26.5 -81.5q0 -78 -36.5 -127t-113.5 -87z" />
<glyph unicode="&#x201c;" horiz-adv-x="511" d="M432 784l26 -43q-80 -39 -80 -94q0 -21 17 -21q76 0 76 -80q0 -41 -24.5 -64t-64.5 -23q-46 0 -73 29.5t-27 81.5q0 78 36.5 127t113.5 87zM187 784l25 -43q-80 -40 -80 -94q0 -21 18 -21q76 0 76 -80q0 -41 -25 -64t-65 -23q-46 0 -72.5 29.5t-26.5 81.5q0 78 36.5 127 t113.5 87z" />
<glyph unicode="&#x201d;" horiz-adv-x="511" d="M79 449l-25 43q79 40 79 94q0 21 -17 21q-76 0 -76 80q0 41 24.5 64t64.5 23q47 0 73.5 -29.5t26.5 -81.5q0 -78 -36.5 -127t-113.5 -87zM325 449l-26 43q80 40 80 94q0 21 -17 21q-77 0 -77 80q0 40 25 63.5t65 23.5q47 0 73.5 -29.5t26.5 -81.5q0 -78 -36.5 -127 t-113.5 -87z" />
<glyph unicode="&#x201e;" horiz-adv-x="598" d="M122 -154l-25 43q79 39 79 94q0 21 -17 21q-76 0 -76 80q0 41 25 64t65 23q46 0 72.5 -29.5t26.5 -81.5q0 -78 -36.5 -127t-113.5 -87zM368 -154l-26 43q80 40 80 94q0 21 -17 21q-76 0 -76 80q0 41 24.5 64t64.5 23q47 0 73.5 -29.5t26.5 -81.5q0 -78 -36.5 -127 t-113.5 -87z" />
<glyph unicode="&#x2022;" horiz-adv-x="411" d="M375 363q0 -69 -46.5 -112t-120.5 -43q-78 0 -124.5 42.5t-46.5 112.5q0 69 47 112t124 43q74 0 120.5 -43.5t46.5 -111.5z" />
<glyph unicode="&#x2026;" horiz-adv-x="1148" d="M266 84q0 -38 -26.5 -65t-63.5 -27q-38 0 -65 27t-27 65q0 37 27 63.5t65 26.5q37 0 63.5 -26.5t26.5 -63.5zM663 84q0 -38 -26.5 -65t-63.5 -27q-38 0 -65 27t-27 65q0 37 27 63.5t65 26.5q37 0 63.5 -26.5t26.5 -63.5zM1062 84q0 -38 -26.5 -65t-64.5 -27t-64.5 27 t-26.5 65q0 37 27 63.5t64 26.5t64 -26.5t27 -63.5z" />
<glyph unicode="&#x202f;" horiz-adv-x="191" />
<glyph unicode="&#x2039;" horiz-adv-x="327" d="M242 498l58 -65l-114 -145l114 -148l-58 -64l-215 212z" />
<glyph unicode="&#x203a;" horiz-adv-x="327" d="M299 287l-215 -212l-57 66l112 146l-112 146l57 65z" />
<glyph unicode="&#x205f;" horiz-adv-x="239" />
<glyph unicode="&#x20ac;" horiz-adv-x="789" d="M520 412l-24 -53h-218q-1 -16 -1 -37q0 -17 1 -25h188l-24 -54h-156q16 -74 57 -115t100 -41q79 0 121.5 28t64.5 90l82 -20q-27 -94 -91.5 -147.5t-189.5 -53.5q-127 0 -215.5 67t-111.5 192h-63l12 54h45q-1 9 -1 30t1 32h-57l12 53h51q23 126 114.5 198t238.5 72 q101 0 178.5 -48.5t77.5 -119.5q0 -36 -22.5 -56.5t-53.5 -20.5q-33 0 -55 17t-22 42q0 28 12.5 44t32.5 18q-36 52 -134 52q-160 0 -188 -198h238z" />
<glyph unicode="&#x2122;" horiz-adv-x="955" d="M392 743v-131l-43 -2q-4 80 -49 80h-26v-201q0 -17 36 -17v-45h-175v45q35 0 35 17v201h-26q-45 0 -49 -80l-44 2v131h341zM906 743v-45q-37 0 -37 -17v-192q0 -17 37 -17v-45h-173v45q36 0 36 17v178l-75 -240h-87l-75 240v-178q0 -17 37 -17v-45h-131v45q37 0 37 17 v192q0 17 -37 17v45h180l64 -207l64 207h160z" />
<glyph unicode="&#xfb01;" horiz-adv-x="964" d="M463 509l-5 -85q-111 11 -151 11v-310q0 -45 131 -45v-80h-398v80q85 0 85 45v310h-86v61q43 9 84 13v77q0 101 55 147.5t165 46.5q199 0 199 -135q0 -36 -23 -59.5t-62 -23.5q-35 0 -54.5 17t-19.5 44q0 24 18 41t46 20q-20 28 -71 28q-70 0 -70 -78v-125h157zM841 509 v-383q-1 -23 20 -34t65 -11v-81h-353v81q85 0 85 45v257q0 46 -85 46v80h268zM850 671q0 -42 -29.5 -72t-71.5 -30q-41 0 -71 30t-30 72q0 41 30 70.5t71 29.5q42 0 71.5 -29.5t29.5 -70.5z" />
<glyph unicode="&#xfb02;" horiz-adv-x="986" d="M463 509l-5 -85q-111 11 -151 11v-310q0 -45 131 -45v-80h-398v80q85 0 85 45v310h-86v61q43 9 84 13v77q0 101 55 147.5t165 46.5q199 0 199 -135q0 -36 -23 -59.5t-62 -23.5q-35 0 -54.5 17t-19.5 44q0 24 18 41t46 20q-20 28 -71 28q-70 0 -70 -78v-125h157zM863 770 v-644q0 -45 85 -45v-81h-353v81q85 0 85 45v519q0 45 -85 45v80h268z" />
</font>
</defs>
</svg>
